<svg width="266px" height="81px" viewBox="0 0 266 81" version="1.1" xmlns="http://www.w3.org/2000/svg" xmlns:xlink="http://www.w3.org/1999/xlink">
    <!-- Generator: Sketch 41.2 (35397) - http://www.bohemiancoding.com/sketch -->
    <title>IASS-Logo-de</title>
    <desc>Created with Sketch.</desc>
    <defs>
        <polygon id="path-1" points="52.9014255 60.6826392 52.9014255 0.543326071 0.36356214 0.543326071 0.36356214 60.6826392 52.9014255 60.6826392"/>
        <polygon id="path-3" points="93.5012872 48.627451 186.756543 48.627451 186.756543 0.895686275 0.246031276 0.895686275 0.246031276 48.627451 93.5012872 48.627451"/>
    </defs>
    <g id="Page-1" stroke="none" stroke-width="1" fill="none" fill-rule="evenodd">
        <g id="IASS-Logo-de">
            <g id="Logo_IASS_zweizeilig_farbig" transform="translate(15.000000, 1.000000)">
                <g id="Group-3" transform="translate(32.908642, 0.000000)">
                    <mask id="mask-2" fill="white">
                        <use xlink:href="#path-1"/>
                    </mask>
                    <g id="Clip-2"/>
                    <path d="M43.892293,11.53313 C53.2101399,25.5692084 53.5690008,41.8594045 44.252721,49.120581 C36.0067556,55.5519535 22.7586765,52.8915614 11.9787457,43.5362672 C11.0761086,43.7135221 10.1546667,43.8546986 9.21912099,43.9519535 C6.18055638,44.2688163 3.20310782,44.118228 0.36356214,43.5597967 C13.047493,59.7574437 32.7958123,65.4719535 44.5347951,56.3190123 C55.9870025,47.3935221 55.5968,27.6084241 43.892293,11.53313 M40.6641119,40.3990123 C42.1528362,39.2366594 43.210614,37.6507771 43.8546831,35.7543065 C43.2748642,36.8633261 42.5038617,37.8123457 41.5338403,38.5715614 C37.6506206,41.5990123 31.5217778,40.7754829 25.413307,37.0468555 C24.6971523,37.6586202 23.949656,38.2374437 23.1723852,38.7801888 C29.8465712,42.788032 36.4721778,43.6648947 40.6641119,40.3990123 M43.4535111,47.2350908 C52.41093,40.2515614 51.0083951,23.4515614 40.3193547,9.71195352 C37.4563029,6.0366594 34.2171523,2.95587509 30.8385317,0.543326071 C30.905916,0.643718228 30.9764346,0.744110385 31.0406848,0.846071169 C33.6577053,2.90881627 36.1571951,5.4076398 38.4075193,8.30332607 C48.3882403,21.1299927 49.7296593,36.7896006 41.4037728,43.2821496 C35.6572971,47.760581 26.8080066,46.6986202 18.5949498,41.398228 C17.5497086,41.8766594 16.4699918,42.2986202 15.3573663,42.6578359 C25.0795193,50.5135221 36.41733,52.720581 43.4535111,47.2350908" id="Fill-1" fill="#0A4A8E" mask="url(#mask-2)"/>
                </g>
                <polygon id="Fill-4" fill="#949594" points="0.0188049383 28.480581 2.51986173 28.480581 2.51986173 11.7794045 0.0188049383 11.7794045"/>
                <path d="M15.6754831,18.4350908 C15.271177,17.2429339 14.6036016,15.3119535 14.4124181,14.5950908 C14.2212346,15.3119535 13.6257449,17.2194045 13.1979325,18.4601888 L11.8627819,22.2766594 L17.0106337,22.2766594 L15.6754831,18.4350908 Z M19.17947,28.4790123 L17.7738008,24.518228 L11.0996148,24.518228 L9.71745185,28.4790123 L7.12080329,28.4790123 L13.1258469,11.7809731 L15.7710749,11.7809731 L21.8482041,28.4790123 L19.17947,28.4790123 L19.17947,28.4790123 Z" id="Fill-5" fill="#949594"/>
                <path d="M31.045386,28.7409731 C28.6148477,28.7409731 26.5180971,27.6915614 25.112428,26.0445025 L26.8988971,24.3048947 C28.019358,25.520581 29.663223,26.2845025 31.2365695,26.2845025 C33.571516,26.2845025 34.691977,25.4719535 34.691977,23.8515614 C34.691977,22.5637182 33.7156872,21.920581 30.9262881,21.0829339 C27.3987951,20.0335221 25.7079177,19.1519535 25.7079177,16.1699927 C25.7079177,13.2837182 28.138456,11.5190123 31.2130634,11.5190123 C33.4774914,11.5190123 35.193442,12.3519535 36.6696296,13.7841104 L34.9066667,15.5723457 C33.8582914,14.4994045 32.6657449,13.9739143 31.0218798,13.9739143 C29.0677333,13.9739143 28.2340477,14.9276398 28.2340477,16.0507771 C28.2340477,17.2194045 28.9956477,17.7935221 31.8806387,18.6515614 C35.1683687,19.6523457 37.218107,20.7017574 37.218107,23.6852869 C37.218107,26.6907771 35.3125399,28.7409731 31.045386,28.7409731" id="Fill-6" fill="#949594"/>
                <path d="M46.797656,28.7409731 C44.3655506,28.7409731 42.2688,27.6915614 40.8631309,26.0445025 L42.6496,24.3048947 C43.7700609,25.520581 45.415493,26.2845025 46.9872724,26.2845025 C49.323786,26.2845025 50.4442469,25.4719535 50.4442469,23.8515614 C50.4442469,22.5637182 49.4663901,21.920581 46.678558,21.0829339 C43.151065,20.0335221 41.4586206,19.1519535 41.4586206,16.1699927 C41.4586206,13.2837182 43.8891588,11.5190123 46.9637663,11.5190123 C49.2281942,11.5190123 50.9441449,12.3519535 52.4218996,13.7841104 L50.6573695,15.5723457 C49.6089942,14.4994045 48.4180148,13.9739143 46.7741498,13.9739143 C44.8184362,13.9739143 43.9847506,14.9276398 43.9847506,16.0507771 C43.9847506,17.2194045 44.7479177,17.7935221 47.6329086,18.6515614 C50.9206387,19.6523457 52.9688099,20.7017574 52.9688099,23.6852869 C52.9688099,26.6907771 51.0632428,28.7409731 46.797656,28.7409731" id="Fill-7" fill="#949594"/>
                <path d="M2.20017778,31.8860712 L0.662874074,31.8860712 L0.662874074,34.2923457 L2.11398848,34.2923457 C3.02446091,34.2923457 3.45854156,33.8766594 3.45854156,33.0860712 C3.45854156,32.3190123 3.01505844,31.8860712 2.20017778,31.8860712 M2.10615309,34.8946986 L0.662874074,34.8946986 L0.662874074,37.2319535 L0,37.2319535 L0,31.280581 L2.22525103,31.280581 C3.30340082,31.280581 4.11984856,31.85313 4.11984856,33.0578359 C4.11984856,34.240581 3.29713251,34.8946986 2.10615309,34.8946986" id="Fill-8" fill="#949594"/>
                <path d="M9.99012346,31.7935221 C8.96212016,31.7935221 8.20678848,32.7535221 8.20678848,34.2484241 C8.20678848,35.7464633 8.98719342,36.7237182 10.0245992,36.7237182 C11.0526025,36.7237182 11.8157695,35.7621496 11.8157695,34.265679 C11.8157695,32.7707771 11.0259621,31.7935221 9.99012346,31.7935221 M9.99795885,37.3260712 C8.52020412,37.3260712 7.5439144,36.0601888 7.5439144,34.265679 C7.5439144,32.4711692 8.53744198,31.1896006 10.0151967,31.1896006 C11.4929514,31.1896006 12.4786436,32.4554829 12.4786436,34.2484241 C12.4786436,36.0429339 11.4757136,37.3260712 9.99795885,37.3260712" id="Fill-9" fill="#949594"/>
                <polyline id="Fill-10" fill="#949594" points="18.1467654 31.8860712 18.1467654 37.2335221 17.4838914 37.2335221 17.4838914 31.8860712 15.733465 31.8860712 15.733465 31.2821496 19.8956247 31.2821496 19.8956247 31.8860712 18.1467654 31.8860712"/>
                <path d="M25.1453366,37.3260712 C24.3382914,37.3260712 23.6158683,36.9778359 23.148879,36.5025418 L23.5907951,36.0084241 C24.0405465,36.4397967 24.5592494,36.7237182 25.1704099,36.7237182 C25.9602173,36.7237182 26.4522798,36.3315614 26.4522798,35.705679 C26.4522798,35.1488163 26.1216263,34.8366594 25.0356412,34.4445025 C23.7522041,33.9848947 23.3181235,33.5692084 23.3181235,32.7096006 C23.3181235,31.7590123 24.0656198,31.1896006 25.1782453,31.1896006 C25.9790222,31.1896006 26.4867556,31.4264633 26.9882206,31.8248947 L26.5635424,32.3441104 C26.1294617,31.9896006 25.7314239,31.7935221 25.1359342,31.7935221 C24.3210535,31.7935221 23.9825646,32.1997967 23.9825646,32.6672476 C23.9825646,33.1613653 24.2019556,33.440581 25.392935,33.8672476 C26.7077136,34.3441104 27.1151539,34.7848947 27.1151539,35.668032 C27.1151539,36.6045025 26.3848955,37.3260712 25.1453366,37.3260712" id="Fill-11" fill="#949594"/>
                <path d="M32.5607506,31.8845025 L31.7035588,31.8845025 L31.7035588,36.6311692 L32.5779885,36.6311692 C33.8614255,36.6311692 34.6590683,35.9503849 34.6590683,34.2390123 C34.6590683,32.7190123 33.9288099,31.8845025 32.5607506,31.8845025 M32.4933663,37.2319535 L31.0406848,37.2319535 L31.0406848,31.280581 L32.6124642,31.280581 C34.1748412,31.280581 35.3219424,32.1746986 35.3219424,34.2139143 C35.3219424,36.3739143 34.0823835,37.2319535 32.4933663,37.2319535" id="Fill-12" fill="#949594"/>
                <path d="M41.4116082,33.1613653 C41.2846749,32.7707771 41.1075951,32.2358751 41.046479,31.9896006 C40.9884971,32.2264633 40.8176856,32.7629339 40.6735144,33.1786202 L40.0200428,35.1174437 L42.0666469,35.1174437 L41.4116082,33.1613653 Z M42.7796675,37.2319535 L42.2703671,35.7197967 L39.8163226,35.7197967 L39.2976198,37.2319535 L38.6175078,37.2319535 L40.6813498,31.280581 L41.4116082,31.280581 L43.4770173,37.2319535 L42.7796675,37.2319535 L42.7796675,37.2319535 Z" id="Fill-13" fill="#949594"/>
                <g id="Group-17" transform="translate(47.012346, 30.384895)">
                    <mask id="mask-4" fill="white">
                        <use xlink:href="#path-3"/>
                    </mask>
                    <g id="Clip-15"/>
                    <path d="M4.73884444,6.84705882 L4.73884444,2.18196078 C4.67929547,2.40941176 4.51005103,2.85176471 4.3831177,3.16862745 L2.79410041,7.00235294 L1.23172346,3.16862745 C1.10322305,2.85960784 0.941813992,2.40941176 0.883832099,2.18196078 L0.883832099,6.84705882 L0.246031276,6.84705882 L0.246031276,0.895686275 L0.985692181,0.895686275 L2.38666008,4.45960784 C2.53083128,4.81568627 2.74395391,5.36941176 2.81133827,5.61411765 C2.88655802,5.36 3.09968066,4.80784314 3.23601646,4.45960784 L4.65422222,0.895686275 L5.37664527,0.895686275 L5.37664527,6.84705882 L4.73884444,6.84705882" id="Fill-14" fill="#949594" mask="url(#mask-4)"/>
                    <path d="M52.5174914,46.067451 L52.5174914,37.4807843 L52.5441317,37.4807843 L57.420879,46.067451 L58.2984428,46.067451 L58.2984428,36.4423529 L57.340958,36.4423529 L57.340958,43.8541176 L57.2876774,43.8541176 L53.091042,36.4423529 L51.5600066,36.4423529 L51.5600066,46.067451 L52.5174914,46.067451 Z M60.8950914,40.9082353 C61.0815737,40.4407843 61.6018436,39.827451 62.6674568,39.827451 C63.4948741,39.827451 64.0934979,40.1741176 64.0934979,41.094902 L64.0934979,41.4682353 C61.0157564,42.0141176 59.8576856,42.774902 59.8576856,44.294902 C59.8576856,45.5623529 60.7618897,46.2007843 61.82907,46.2007843 C62.8680428,46.2007843 63.6406123,45.6423529 64.1201383,45.1090196 L64.2266996,46.067451 L65.2108247,46.067451 C65.1183671,45.7082353 65.0509827,45.334902 65.0509827,44.5741176 L65.0509827,41.0823529 C65.0509827,39.5607843 63.8270947,39.0023529 62.6549202,39.0023529 C61.349544,39.0023529 60.4970535,39.667451 60.0582716,40.467451 L60.8950914,40.9082353 Z M64.0934979,44.2290196 C63.534051,44.8690196 62.6549202,45.3756863 61.9622716,45.3756863 C61.429465,45.3756863 60.8151704,44.9490196 60.8151704,44.3090196 C60.8151704,43.3490196 61.8948872,42.7090196 64.0934979,42.3247059 L64.0934979,44.2290196 Z M71.4180214,40.8815686 C70.9792395,39.8007843 70.3132313,39.0023529 68.8871901,39.0023529 C67.1555687,39.0023529 66.0523457,40.3623529 66.0523457,42.6023529 C66.0523457,44.8423529 67.1555687,46.2007843 68.8871901,46.2007843 C70.2599506,46.2007843 70.8726782,45.6156863 71.5653267,44.4423529 L70.7927572,44.0956863 C70.2599506,45.0823529 69.766321,45.3756863 68.8871901,45.3756863 C67.702479,45.3756863 67.0098305,44.3623529 67.0098305,42.6023529 C67.0098305,40.8407843 67.702479,39.827451 68.8871901,39.827451 C69.7130403,39.827451 70.2599506,40.3623529 70.5263539,41.2015686 L71.4180214,40.8815686 Z M72.9255506,36.4423529 L72.9255506,46.067451 L73.8814683,46.067451 L73.8814683,40.8815686 C74.3233844,40.4141176 75.1492346,39.827451 75.8685235,39.827451 C76.5596049,39.827451 77.001521,40.1333333 77.001521,41.0541176 L77.001521,46.067451 L77.9590058,46.067451 L77.9590058,41.027451 C77.9590058,39.5341176 76.9889844,39.0023529 75.9641152,39.0023529 C75.177442,39.0023529 74.4581531,39.4541176 73.9096757,40.067451 L73.8814683,40.067451 L73.8814683,36.4423529 L72.9255506,36.4423529 Z M79.6248099,36.4423529 L79.6248099,46.067451 L80.5822947,46.067451 L80.5822947,40.8815686 C81.0226436,40.4141176 81.8484938,39.827451 82.5693498,39.827451 C83.2635654,39.827451 83.7007802,40.1333333 83.7007802,41.0541176 L83.7007802,46.067451 L84.658265,46.067451 L84.658265,41.027451 C84.658265,39.5341176 83.6882436,39.0023529 82.6618074,39.0023529 C81.8751342,39.0023529 81.1558453,39.4541176 80.608935,40.067451 L80.5822947,40.067451 L80.5822947,36.4423529 L79.6248099,36.4423529 Z M87.0041811,40.9082353 C87.1906634,40.4407843 87.7109333,39.827451 88.7749794,39.827451 C89.6023967,39.827451 90.2025877,40.1741176 90.2025877,41.094902 L90.2025877,41.4682353 C87.123279,42.0141176 85.9652082,42.774902 85.9652082,44.294902 C85.9652082,45.5623529 86.8694123,46.2007843 87.9365926,46.2007843 C88.9755654,46.2007843 89.748135,45.6423529 90.2276609,45.1090196 L90.3326551,46.067451 L91.3183473,46.067451 C91.2274568,45.7082353 91.1600724,45.334902 91.1600724,44.5741176 L91.1600724,41.0823529 C91.1600724,39.5607843 89.9361844,39.0023529 88.7640099,39.0023529 C87.4570667,39.0023529 86.6061432,39.667451 86.1657942,40.467451 L87.0041811,40.9082353 Z M90.2025877,44.2290196 C89.6415737,44.8690196 88.7640099,45.3756863 88.0697942,45.3756863 C87.5369877,45.3756863 86.9242601,44.9490196 86.9242601,44.3090196 C86.9242601,43.3490196 88.0024099,42.7090196 90.2025877,42.3247059 L90.2025877,44.2290196 Z M92.9998222,46.067451 L93.9557399,46.067451 L93.9557399,36.4423529 L92.9998222,36.4423529 L92.9998222,46.067451 Z M95.1294815,39.1356863 L95.1294815,39.9607843 L96.262479,39.9607843 L96.262479,45.0556863 C96.262479,45.9341176 96.7012609,46.2007843 97.7386667,46.2007843 C98.2981136,46.2007843 98.686749,46.147451 98.8575605,46.0941176 L98.8575605,45.3098039 C98.606828,45.3490196 98.3247539,45.3756863 98.00507,45.3756863 C97.4471901,45.3756863 97.2199638,45.2156863 97.2199638,44.8956863 L97.2199638,39.9607843 L98.8183835,39.9607843 L98.8183835,39.1356863 L97.2199638,39.1356863 L97.2199638,36.8564706 L96.262479,36.8564706 L96.262479,39.1356863 L95.1294815,39.1356863 Z M100.258528,46.067451 L101.216013,46.067451 L101.216013,39.1356863 L100.258528,39.1356863 L100.258528,46.067451 Z M100.258528,37.4556863 L101.216013,37.4556863 L101.216013,36.3105882 L100.258528,36.3105882 L100.258528,37.4556863 Z M108.542104,38.8690196 C108.021834,38.9223529 107.463954,39.1890196 107.051812,39.4807843 C106.598927,39.1623529 106.078657,39.0023529 105.334295,39.0023529 C103.851839,39.0023529 102.709439,39.9607843 102.709439,41.4290196 C102.709439,42.1882353 103.002482,42.8690196 103.654387,43.3615686 C103.12158,43.6956863 102.723542,43.9482353 102.723542,44.5490196 C102.723542,44.9615686 103.054196,45.3741176 103.587002,45.5341176 C102.841073,45.9215686 102.416395,46.2541176 102.416395,46.9490196 C102.416395,48.0956863 103.455368,48.627451 105.398545,48.627451 C107.559546,48.627451 108.553073,47.7756863 108.553073,46.7623529 C108.553073,45.4007843 107.504698,44.8156863 104.22637,44.8156863 C103.880046,44.8156863 103.654387,44.6290196 103.654387,44.3090196 C103.654387,44.0015686 103.828333,43.7741176 104.19973,43.667451 C104.571128,43.7741176 104.865738,43.8541176 105.425185,43.8541176 C106.824586,43.8541176 107.957584,42.8015686 107.957584,41.4290196 C107.957584,40.787451 107.678644,40.2541176 107.476491,40.0141176 C107.716253,39.894902 108.144066,39.827451 108.542104,39.827451 L108.542104,38.8690196 Z M107.650436,46.8015686 C107.639467,47.4823529 106.705488,47.8023529 105.558387,47.8023529 C103.64185,47.8023529 103.320599,47.4556863 103.320599,46.934902 C103.320599,46.4423529 103.746844,45.7741176 105.252807,45.7741176 C106.945251,45.7741176 107.639467,46.1207843 107.650436,46.8015686 L107.650436,46.8015686 Z M107.051812,41.4823529 C107.051812,42.3090196 106.492365,43.0290196 105.398545,43.0290196 C104.332932,43.0290196 103.613643,42.3482353 103.613643,41.4290196 C103.613643,40.5207843 104.19973,39.827451 105.291984,39.827451 C106.465725,39.827451 107.051812,40.467451 107.051812,41.4823529 L107.051812,41.4823529 Z M109.488619,46.067451 L110.446104,46.067451 L110.446104,43.987451 L111.72484,42.5223529 L113.564589,46.067451 L114.69602,46.067451 L112.392415,41.6956863 L114.429616,39.1356863 L113.269979,39.1356863 L110.472744,42.6415686 L110.446104,42.6415686 L110.446104,36.4423529 L109.488619,36.4423529 L109.488619,46.067451 Z M120.050726,44.2023529 C119.652688,44.9223529 118.988247,45.3756863 118.134189,45.3756863 C116.987088,45.3756863 116.081317,44.3090196 116.081317,42.787451 L120.583533,42.787451 L120.583533,42.1490196 C120.583533,39.9341176 119.386285,39.0023529 117.947707,39.0023529 C116.242726,39.0023529 115.125399,40.3623529 115.125399,42.6007843 C115.125399,45.1356863 116.587483,46.2007843 118.134189,46.2007843 C119.707536,46.2007843 120.34377,45.3756863 120.796655,44.5882353 L120.050726,44.2023529 Z M116.107957,41.9623529 C116.187878,40.6807843 116.813142,39.827451 117.97278,39.827451 C119.01332,39.827451 119.627615,40.6807843 119.627615,41.9623529 L116.107957,41.9623529 Z M122.183519,46.067451 L123.141004,46.067451 L123.141004,39.1356863 L122.183519,39.1356863 L122.183519,46.067451 Z M122.183519,37.4556863 L123.141004,37.4556863 L123.141004,36.3105882 L122.183519,36.3105882 L122.183519,37.4556863 Z M124.314746,39.1356863 L124.314746,39.9607843 L125.446176,39.9607843 L125.446176,45.0556863 C125.446176,45.9341176 125.884958,46.2007843 126.923931,46.2007843 C127.484945,46.2007843 127.870446,46.147451 128.042825,46.0941176 L128.042825,45.3098039 C127.790525,45.3490196 127.510018,45.3756863 127.190334,45.3756863 C126.630887,45.3756863 126.403661,45.2156863 126.403661,44.8956863 L126.403661,39.9607843 L128.002081,39.9607843 L128.002081,39.1356863 L126.403661,39.1356863 L126.403661,36.8564706 L125.446176,36.8564706 L125.446176,39.1356863 L124.314746,39.1356863 Z M128.657119,44.8815686 C129.296487,45.734902 130.34643,46.2007843 131.426147,46.2007843 C132.679809,46.2007843 133.850416,45.5215686 133.850416,44.1756863 C133.850416,41.587451 129.829294,42.3607843 129.829294,40.854902 C129.829294,40.2415686 130.266509,39.827451 131.079822,39.827451 C131.825751,39.827451 132.333485,40.147451 132.866291,40.8015686 L133.530733,40.214902 C133.06531,39.507451 132.065514,39.0164706 131.159743,39.0023529 C129.829294,38.9913725 128.910986,39.667451 128.870242,40.867451 C128.791888,43.4023529 132.892932,42.4690196 132.892932,44.2290196 C132.892932,44.8156863 132.440046,45.3756863 131.399506,45.3756863 C130.532912,45.3756863 129.866904,44.9615686 129.415585,44.3090196 L128.657119,44.8815686 Z M136.302894,46.067451 L136.302894,39.9607843 L137.805722,39.9607843 L137.805722,39.1356863 L136.302894,39.1356863 L136.302894,38.1223529 C136.302894,37.347451 136.54109,37.1341176 137.192994,37.1341176 C137.407684,37.1341176 137.661551,37.2015686 137.885643,37.2282353 L137.885643,36.3764706 C137.606703,36.3498039 137.313659,36.3105882 137.033152,36.3105882 C135.901722,36.3105882 135.343842,36.7090196 135.343842,38.3482353 L135.343842,39.1356863 L134.171667,39.1356863 L134.171667,39.9607843 L135.343842,39.9607843 L135.343842,46.067451 L136.302894,46.067451 Z M143.017824,42.6023529 C143.017824,44.3890196 142.282864,45.3756863 141.13733,45.3756863 C139.990229,45.3756863 139.256836,44.3890196 139.256836,42.6023529 C139.256836,40.8141176 139.990229,39.827451 141.13733,39.827451 C142.282864,39.827451 143.017824,40.8141176 143.017824,42.6023529 L143.017824,42.6023529 Z M143.972174,42.6023529 C143.972174,40.6007843 143.028793,39.0023529 141.13733,39.0023529 C139.242733,39.0023529 138.300919,40.6007843 138.300919,42.6023529 C138.300919,44.6023529 139.242733,46.2007843 141.13733,46.2007843 C143.028793,46.2007843 143.972174,44.6023529 143.972174,42.6023529 L143.972174,42.6023529 Z M144.961001,46.067451 L145.918486,46.067451 L145.918486,42.227451 C146.369804,40.8015686 146.996635,40.0141176 148.19545,39.987451 L148.19545,39.0290196 C147.051483,39.0290196 146.476365,39.5607843 145.943559,40.5082353 L145.918486,40.5082353 L145.918486,39.1356863 L144.961001,39.1356863 L144.961001,46.067451 Z M148.342756,44.8815686 C148.982123,45.734902 150.033633,46.2007843 151.11335,46.2007843 C152.365445,46.2007843 153.53762,45.5215686 153.53762,44.1756863 C153.53762,41.587451 149.513363,42.3607843 149.513363,40.854902 C149.513363,40.2415686 149.953712,39.827451 150.767026,39.827451 C151.514522,39.827451 152.019121,40.147451 152.551928,40.8015686 L153.217936,40.214902 C152.754081,39.507451 151.752718,39.0164706 150.846947,39.0023529 C149.513363,38.9913725 148.596622,39.667451 148.557445,40.867451 C148.475957,43.4023529 152.578568,42.4690196 152.578568,44.2290196 C152.578568,44.8156863 152.125682,45.3756863 151.086709,45.3756863 C150.220115,45.3756863 149.555674,44.9615686 149.101221,44.3090196 L148.342756,44.8815686 Z M159.664895,40.8815686 C159.222979,39.8007843 158.560105,39.0023529 157.132497,39.0023529 C155.400876,39.0023529 154.29922,40.3623529 154.29922,42.6023529 C154.29922,44.8423529 155.400876,46.2007843 157.132497,46.2007843 C158.503691,46.2007843 159.117985,45.6156863 159.810634,44.4423529 L159.038064,44.0956863 C158.503691,45.0823529 158.011628,45.3756863 157.132497,45.3756863 C155.949353,45.3756863 155.255137,44.3623529 155.255137,42.6023529 C155.255137,40.8407843 155.949353,39.827451 157.132497,39.827451 C157.959914,39.827451 158.503691,40.3623529 158.771661,41.2015686 L159.664895,40.8815686 Z M161.170858,36.4423529 L161.170858,46.067451 L162.128342,46.067451 L162.128342,40.8815686 C162.567124,40.4141176 163.396109,39.827451 164.115398,39.827451 C164.806479,39.827451 165.246828,40.1333333 165.246828,41.0541176 L165.246828,46.067451 L166.20588,46.067451 L166.20588,41.027451 C166.20588,39.5341176 165.232724,39.0023529 164.206288,39.0023529 C163.421182,39.0023529 162.700326,39.4541176 162.15655,40.067451 L162.128342,40.067451 L162.128342,36.4423529 L161.170858,36.4423529 Z M172.903572,46.067451 L172.903572,39.1356863 L171.947654,39.1356863 L171.947654,44.3231373 C171.507305,44.7890196 170.679888,45.3756863 169.960599,45.3756863 C169.269518,45.3756863 168.827602,45.0698039 168.827602,44.1490196 L168.827602,39.1356863 L167.870117,39.1356863 L167.870117,44.1756863 C167.870117,45.6690196 168.841705,46.2007843 169.868142,46.2007843 C170.653248,46.2007843 171.374104,45.7490196 171.919447,45.1356863 L171.947654,45.1356863 L171.947654,46.067451 L172.903572,46.067451 Z M174.570943,39.1356863 L174.570943,46.067451 L175.528428,46.067451 L175.528428,40.8815686 C175.96721,40.4141176 176.794627,39.827451 177.513916,39.827451 C178.206565,39.827451 178.646914,40.1333333 178.646914,41.0541176 L178.646914,46.067451 L179.604398,46.067451 L179.604398,41.027451 C179.604398,39.5341176 178.63281,39.0023529 177.609508,39.0023529 C176.821267,39.0023529 176.100412,39.4541176 175.555068,40.067451 L175.528428,40.067451 L175.528428,39.1356863 L174.570943,39.1356863 Z M186.744007,38.8690196 C186.223737,38.9223529 185.665857,39.1890196 185.255282,39.4807843 C184.802397,39.1623529 184.282127,39.0023529 183.53463,39.0023529 C182.056876,39.0023529 180.911342,39.9607843 180.911342,41.4290196 C180.911342,42.1882353 181.202818,42.8690196 181.854723,43.3615686 C181.323483,43.6956863 180.923878,43.9482353 180.923878,44.5490196 C180.923878,44.9615686 181.256099,45.3741176 181.790472,45.5341176 C181.042976,45.9215686 180.618298,46.2541176 180.618298,46.9490196 C180.618298,48.0956863 181.655704,48.627451 183.600448,48.627451 C185.759881,48.627451 186.75811,47.7756863 186.75811,46.7623529 C186.75811,45.4007843 185.708168,44.8156863 182.428273,44.8156863 C182.081949,44.8156863 181.854723,44.6290196 181.854723,44.3090196 C181.854723,44.0015686 182.028668,43.7741176 182.401633,43.667451 C182.776165,43.7741176 183.067641,43.8541176 183.627088,43.8541176 C185.026489,43.8541176 186.157919,42.8015686 186.157919,41.4290196 C186.157919,40.787451 185.878979,40.2541176 185.678393,40.0141176 C185.919723,39.894902 186.344402,39.827451 186.744007,39.827451 L186.744007,38.8690196 Z M185.852339,46.8015686 C185.839802,47.4823529 184.907391,47.8023529 183.761857,47.8023529 C181.842186,47.8023529 181.522502,47.4556863 181.522502,46.934902 C181.522502,46.4423529 181.948747,45.7741176 183.454709,45.7741176 C185.147154,45.7741176 185.839802,46.1207843 185.852339,46.8015686 L185.852339,46.8015686 Z M185.255282,41.4823529 C185.255282,42.3090196 184.694268,43.0290196 183.600448,43.0290196 C182.533267,43.0290196 181.813979,42.3482353 181.813979,41.4290196 C181.813979,40.5207843 182.401633,39.827451 183.495453,39.827451 C184.667628,39.827451 185.255282,40.467451 185.255282,41.4823529 L185.255282,41.4823529 Z" id="Fill-16" fill="#636462" mask="url(#mask-4)"/>
                </g>
                <path d="M98.5723523,60.4523457 L99.6363984,60.4523457 L99.6363984,50.8272476 L98.5723523,50.8272476 L98.5723523,60.4523457 Z M102.076339,53.520581 L102.076339,60.4523457 L103.033824,60.4523457 L103.033824,55.2648947 C103.472606,54.800581 104.300023,54.2123457 105.019312,54.2123457 C105.71196,54.2123457 106.152309,54.518228 106.152309,55.4390123 L106.152309,60.4523457 L107.109794,60.4523457 L107.109794,55.4123457 C107.109794,53.9190123 106.138206,53.3872476 105.11177,53.3872476 C104.326663,53.3872476 103.605807,53.8390123 103.060464,54.4523457 L103.033824,54.4523457 L103.033824,53.520581 L102.076339,53.520581 Z M108.176974,59.2664633 C108.814775,60.1197967 109.866285,60.585679 110.946002,60.585679 C112.199664,60.585679 113.370272,59.9064633 113.370272,58.560581 C113.370272,55.9723457 109.347582,56.745679 109.347582,55.2397967 C109.347582,54.6264633 109.786364,54.2123457 110.599677,54.2123457 C111.345607,54.2123457 111.85334,54.5323457 112.386147,55.1864633 L113.050588,54.5997967 C112.585165,53.8923457 111.58537,53.4013653 110.679598,53.3872476 C109.347582,53.3746986 108.429274,54.0523457 108.390097,55.2523457 C108.310176,57.7872476 112.412787,56.8539143 112.412787,58.6139143 C112.412787,59.200581 111.959901,59.760581 110.919361,59.760581 C110.052767,59.760581 109.386759,59.3464633 108.93544,58.6939143 L108.176974,59.2664633 Z M113.570858,53.520581 L113.570858,54.345679 L114.703855,54.345679 L114.703855,59.4421496 C114.703855,60.3190123 115.142637,60.585679 116.180043,60.585679 C116.73949,60.585679 117.126558,60.5323457 117.298937,60.4790123 L117.298937,59.6946986 C117.04507,59.7339143 116.76613,59.760581 116.446446,59.760581 C115.886999,59.760581 115.66134,59.600581 115.66134,59.280581 L115.66134,54.345679 L117.258193,54.345679 L117.258193,53.520581 L115.66134,53.520581 L115.66134,51.2413653 L114.703855,51.2413653 L114.703855,53.520581 L113.570858,53.520581 Z M118.698337,60.4523457 L119.654255,60.4523457 L119.654255,53.520581 L118.698337,53.520581 L118.698337,60.4523457 Z M118.698337,51.840581 L119.654255,51.840581 L119.654255,50.6954829 L118.698337,50.6954829 L118.698337,51.840581 Z M120.829564,53.520581 L120.829564,54.345679 L121.962561,54.345679 L121.962561,59.4421496 C121.962561,60.3190123 122.399776,60.585679 123.438749,60.585679 C123.998196,60.585679 124.385264,60.5323457 124.557643,60.4790123 L124.557643,59.6946986 C124.303776,59.7339143 124.026403,59.760581 123.703585,59.760581 C123.145705,59.760581 122.920046,59.600581 122.920046,59.280581 L122.920046,54.345679 L124.518466,54.345679 L124.518466,53.520581 L122.920046,53.520581 L122.920046,51.2413653 L121.962561,51.2413653 L121.962561,53.520581 L120.829564,53.520581 Z M130.805584,60.4523457 L130.805584,53.520581 L129.846532,53.520581 L129.846532,58.708032 C129.40775,59.1739143 128.583467,59.760581 127.862611,59.760581 C127.168395,59.760581 126.729613,59.4546986 126.729613,58.5339143 L126.729613,53.520581 L125.772128,53.520581 L125.772128,58.560581 C125.772128,60.0539143 126.74215,60.585679 127.768586,60.585679 C128.555259,60.585679 129.274548,60.1339143 129.821458,59.520581 L129.846532,59.520581 L129.846532,60.4523457 L130.805584,60.4523457 Z M131.79441,53.520581 L131.79441,54.345679 L132.922706,54.345679 L132.922706,59.4421496 C132.922706,60.3190123 133.364622,60.585679 134.402028,60.585679 C134.961475,60.585679 135.346976,60.5323457 135.520922,60.4790123 L135.520922,59.6946986 C135.267055,59.7339143 134.989682,59.760581 134.668431,59.760581 C134.108984,59.760581 133.881758,59.600581 133.881758,59.280581 L133.881758,54.345679 L135.480178,54.345679 L135.480178,53.520581 L133.881758,53.520581 L133.881758,51.2413653 L132.922706,51.2413653 L132.922706,53.520581 L131.79441,53.520581 Z M141.660734,60.4523457 L141.660734,54.345679 L143.166696,54.345679 L143.166696,53.520581 L141.660734,53.520581 L141.660734,52.5072476 C141.660734,51.7323457 141.900497,51.5190123 142.553969,51.5190123 C142.767091,51.5190123 143.020958,51.5864633 143.246617,51.61313 L143.246617,50.7597967 C142.964543,50.7346986 142.673067,50.6939143 142.394127,50.6939143 C141.264263,50.6939143 140.703249,51.0939143 140.703249,52.73313 L140.703249,53.520581 L139.531075,53.520581 L139.531075,54.345679 L140.703249,54.345679 L140.703249,60.4523457 L141.660734,60.4523457 Z M147.335124,52.585679 L148.507299,52.585679 L148.507299,51.3339143 L147.335124,51.3339143 L147.335124,52.585679 Z M145.233672,52.585679 L146.40428,52.585679 L146.40428,51.3339143 L145.233672,51.3339143 L145.233672,52.585679 Z M149.38643,60.4523457 L149.38643,53.520581 L148.428945,53.520581 L148.428945,58.708032 C147.990163,59.1739143 147.162746,59.760581 146.443457,59.760581 C145.750808,59.760581 145.310459,59.4546986 145.310459,58.5339143 L145.310459,53.520581 L144.352974,53.520581 L144.352974,58.560581 C144.352974,60.0539143 145.324563,60.585679 146.350999,60.585679 C147.137672,60.585679 147.856961,60.1339143 148.402305,59.520581 L148.428945,59.520581 L148.428945,60.4523457 L149.38643,60.4523457 Z M151.066337,60.4523457 L152.025389,60.4523457 L152.025389,56.6123457 C152.476708,55.1864633 153.103539,54.3990123 154.302354,54.3723457 L154.302354,53.4139143 C153.15682,53.4139143 152.583269,53.945679 152.048895,54.89313 L152.025389,54.89313 L152.025389,53.520581 L151.066337,53.520581 L151.066337,60.4523457 Z M157.992823,53.520581 L157.992823,54.345679 L159.125821,54.345679 L159.125821,59.4421496 C159.125821,60.3190123 159.563035,60.585679 160.600441,60.585679 C161.161455,60.585679 161.548523,60.5323457 161.720902,60.4790123 L161.720902,59.6946986 C161.468602,59.7339143 161.188095,59.760581 160.866844,59.760581 C160.308965,59.760581 160.083305,59.600581 160.083305,59.280581 L160.083305,54.345679 L161.681725,54.345679 L161.681725,53.520581 L160.083305,53.520581 L160.083305,51.2413653 L159.125821,51.2413653 L159.125821,53.520581 L157.992823,53.520581 Z M162.947924,60.4523457 L163.905409,60.4523457 L163.905409,56.6123457 C164.358295,55.1864633 164.983559,54.3990123 166.182374,54.3723457 L166.182374,53.4139143 C165.035272,53.4139143 164.464856,53.945679 163.930482,54.89313 L163.905409,54.89313 L163.905409,53.520581 L162.947924,53.520581 L162.947924,60.4523457 Z M167.608415,55.29313 C167.794897,54.825679 168.315167,54.2123457 169.38078,54.2123457 C170.205063,54.2123457 170.806821,54.5590123 170.806821,55.4797967 L170.806821,55.85313 C167.727513,56.3990123 166.571009,57.1597967 166.571009,58.6797967 C166.571009,59.9472476 167.475213,60.585679 168.540826,60.585679 C169.581366,60.585679 170.353936,60.0288163 170.833462,59.4939143 L170.940023,60.4523457 L171.924148,60.4523457 C171.830123,60.0946986 171.762739,59.7197967 171.762739,58.9590123 L171.762739,55.465679 C171.762739,53.945679 170.540418,53.3872476 169.368244,53.3872476 C168.062867,53.3872476 167.210377,54.0523457 166.770028,54.8523457 L167.608415,55.29313 Z M170.806821,58.6139143 C170.248942,59.2539143 169.366677,59.760581 168.675595,59.760581 C168.141221,59.760581 167.526927,59.3339143 167.526927,58.6939143 C167.526927,57.7339143 168.608211,57.0939143 170.806821,56.708032 L170.806821,58.6139143 Z M173.15117,53.520581 L173.15117,60.4523457 L174.108655,60.4523457 L174.108655,55.2648947 C174.549004,54.800581 175.374854,54.2123457 176.094143,54.2123457 C176.786792,54.2123457 177.227141,54.518228 177.227141,55.4390123 L177.227141,60.4523457 L178.184626,60.4523457 L178.184626,55.4123457 C178.184626,53.9190123 177.213037,53.3872476 176.189735,53.3872476 C175.403062,53.3872476 174.683773,53.8390123 174.135295,54.4523457 L174.108655,54.4523457 L174.108655,53.520581 L173.15117,53.520581 Z M179.253373,59.2664633 C179.889607,60.1197967 180.942683,60.585679 182.019266,60.585679 C183.274495,60.585679 184.445103,59.9064633 184.445103,58.560581 C184.445103,55.9723457 180.422413,56.745679 180.422413,55.2397967 C180.422413,54.6264633 180.862762,54.2123457 181.674509,54.2123457 C182.422005,54.2123457 182.928171,54.5323457 183.460978,55.1864633 L184.125419,54.5997967 C183.659997,53.8923457 182.663335,53.4013653 181.752863,53.3872476 C180.422413,53.3746986 179.504105,54.0523457 179.463361,55.2523457 C179.385007,57.7872476 183.487618,56.8539143 183.487618,58.6139143 C183.487618,59.200581 183.034733,59.760581 181.99576,59.760581 C181.129165,59.760581 180.46159,59.3464633 180.010272,58.6939143 L179.253373,59.2664633 Z M186.896013,60.4523457 L186.896013,54.345679 L188.401975,54.345679 L188.401975,53.520581 L186.896013,53.520581 L186.896013,52.5072476 C186.896013,51.7323457 187.135776,51.5190123 187.787681,51.5190123 C188.000803,51.5190123 188.25467,51.5864633 188.480329,51.61313 L188.480329,50.7597967 C188.202956,50.7346986 187.908346,50.6939143 187.626272,50.6939143 C186.496408,50.6939143 185.936961,51.0939143 185.936961,52.73313 L185.936961,53.520581 L184.764787,53.520581 L184.764787,54.345679 L185.936961,54.345679 L185.936961,60.4523457 L186.896013,60.4523457 Z M193.34454,56.9872476 C193.34454,58.7739143 192.611147,59.760581 191.465613,59.760581 C190.316945,59.760581 189.585119,58.7739143 189.585119,56.9872476 C189.585119,55.1990123 190.316945,54.2123457 191.465613,54.2123457 C192.611147,54.2123457 193.34454,55.1990123 193.34454,56.9872476 L193.34454,56.9872476 Z M194.302025,56.9872476 C194.302025,54.985679 193.357077,53.3872476 191.465613,53.3872476 C189.57415,53.3872476 188.629202,54.985679 188.629202,56.9872476 C188.629202,58.9872476 189.57415,60.585679 191.465613,60.585679 C193.357077,60.585679 194.302025,58.9872476 194.302025,56.9872476 L194.302025,56.9872476 Z M195.289284,60.4523457 L196.245202,60.4523457 L196.245202,56.6123457 C196.699654,55.1864633 197.324919,54.3990123 198.523733,54.3723457 L198.523733,53.4139143 C197.378199,53.4139143 196.806216,53.945679 196.273409,54.89313 L196.245202,54.89313 L196.245202,53.520581 L195.289284,53.520581 L195.289284,60.4523457 Z M200.40266,60.4523457 L200.40266,55.2790123 C200.921363,54.7723457 201.479243,54.2123457 202.334867,54.2123457 C202.947595,54.2123457 203.414584,54.5590123 203.414584,55.4923457 L203.414584,60.4523457 L204.372069,60.4523457 L204.372069,55.2790123 C204.890772,54.7723457 205.450219,54.2123457 206.302709,54.2123457 C206.917004,54.2123457 207.383993,54.5590123 207.383993,55.4923457 L207.383993,60.4523457 L208.341478,60.4523457 L208.341478,55.4923457 C208.341478,53.77313 207.355786,53.3872476 206.437478,53.3872476 C205.624165,53.3872476 204.853162,53.8264633 204.238867,54.4790123 C203.986568,53.8390123 203.361304,53.3872476 202.468069,53.3872476 C201.800494,53.3872476 201.042028,53.7339143 200.455941,54.3864633 L200.40266,54.4397967 L200.40266,53.520581 L199.443608,53.520581 L199.443608,60.4523457 L200.40266,60.4523457 Z M210.34107,55.29313 C210.525985,54.825679 211.044688,54.2123457 212.111868,54.2123457 C212.937719,54.2123457 213.539477,54.5590123 213.539477,55.4797967 L213.539477,55.85313 C210.458601,56.3990123 209.303664,57.1597967 209.303664,58.6797967 C209.303664,59.9472476 210.206301,60.585679 211.270347,60.585679 C212.310887,60.585679 213.083457,60.0288163 213.56455,59.4939143 L213.671111,60.4523457 L214.656803,60.4523457 C214.561212,60.0946986 214.495394,59.7197967 214.495394,58.9590123 L214.495394,55.465679 C214.495394,53.945679 213.273073,53.3872476 212.100899,53.3872476 C210.793956,53.3872476 209.943032,54.0523457 209.501116,54.8523457 L210.34107,55.29313 Z M213.539477,58.6139143 C212.976895,59.2539143 212.097765,59.760581 211.405116,59.760581 C210.872309,59.760581 210.259582,59.3339143 210.259582,58.6939143 C210.259582,57.7339143 211.337732,57.0939143 213.539477,56.708032 L213.539477,58.6139143 Z M215.202147,53.520581 L215.202147,54.345679 L216.335144,54.345679 L216.335144,59.4421496 C216.335144,60.3190123 216.773926,60.585679 217.811332,60.585679 C218.372346,60.585679 218.757847,60.5323457 218.930226,60.4790123 L218.930226,59.6946986 C218.677926,59.7339143 218.397419,59.760581 218.077735,59.760581 C217.518288,59.760581 217.292629,59.600581 217.292629,59.280581 L217.292629,54.345679 L218.892616,54.345679 L218.892616,53.520581 L217.292629,53.520581 L217.292629,51.2413653 L216.335144,51.2413653 L216.335144,53.520581 L215.202147,53.520581 Z M220.331193,60.4523457 L221.288678,60.4523457 L221.288678,53.520581 L220.331193,53.520581 L220.331193,60.4523457 Z M220.331193,51.840581 L221.288678,51.840581 L221.288678,50.6954829 L220.331193,50.6954829 L220.331193,51.840581 Z M227.65415,53.520581 L226.680994,53.520581 L224.9243,59.2539143 L224.897659,59.2539143 L223.140965,53.520581 L222.166242,53.520581 L224.299035,60.4523457 L225.576204,60.4523457 L227.65415,53.520581 Z M232.888191,58.5872476 C232.490153,59.3072476 231.827279,59.760581 230.973221,59.760581 C229.82612,59.760581 228.920349,58.6939143 228.920349,57.1723457 L233.422565,57.1723457 L233.422565,56.5339143 C233.422565,54.3190123 232.22375,53.3872476 230.785172,53.3872476 C229.081758,53.3872476 227.964431,54.745679 227.964431,56.985679 C227.964431,59.520581 229.426515,60.585679 230.973221,60.585679 C232.546568,60.585679 233.182802,59.760581 233.635687,58.97313 L232.888191,58.5872476 Z M228.946989,56.3472476 C229.025343,55.065679 229.653742,54.2123457 230.811812,54.2123457 C231.852352,54.2123457 232.46508,55.065679 232.46508,56.3472476 L228.946989,56.3472476 L228.946989,56.3472476 Z" id="Fill-18" fill="#636462"/>
            </g>
        </g>
    </g>
</svg>