<?xml version="1.0" encoding="UTF-8" standalone="no"?>
<!-- Created with Inkscape (http://www.inkscape.org/) -->

<svg
   xmlns:dc="http://purl.org/dc/elements/1.1/"
   xmlns:cc="http://creativecommons.org/ns#"
   xmlns:rdf="http://www.w3.org/1999/02/22-rdf-syntax-ns#"
   xmlns:svg="http://www.w3.org/2000/svg"
   xmlns="http://www.w3.org/2000/svg"
   xmlns:sodipodi="http://sodipodi.sourceforge.net/DTD/sodipodi-0.dtd"
   xmlns:inkscape="http://www.inkscape.org/namespaces/inkscape"
   width="340mm"
   height="150mm"
   viewBox="0 0 340 150"
   version="1.1"
   id="svg17686"
   sodipodi:docname="pik.svg"
   inkscape:version="0.92.4 (5da689c313, 2019-01-14)">
  <defs
     id="defs17680" />
  <sodipodi:namedview
     id="base"
     pagecolor="#ffffff"
     bordercolor="#666666"
     borderopacity="1.0"
     inkscape:pageopacity="0.0"
     inkscape:pageshadow="2"
     inkscape:zoom="1.4"
     inkscape:cx="758.14236"
     inkscape:cy="374.58554"
     inkscape:document-units="mm"
     inkscape:current-layer="layer1"
     showgrid="false"
     inkscape:pagecheckerboard="true"
     inkscape:window-width="3751"
     inkscape:window-height="2137"
     inkscape:window-x="81"
     inkscape:window-y="-8"
     inkscape:window-maximized="1" />
  <metadata
     id="metadata17683">
    <rdf:RDF>
      <cc:Work
         rdf:about="">
        <dc:format>image/svg+xml</dc:format>
        <dc:type
           rdf:resource="http://purl.org/dc/dcmitype/StillImage" />
        <dc:title></dc:title>
      </cc:Work>
    </rdf:RDF>
  </metadata>
  <g
     inkscape:label="Ebene 1"
     inkscape:groupmode="layer"
     id="layer1"
     transform="translate(0,-147)">
    <path
       inkscape:connector-curvature="0"
       style="opacity:1;fill:#ff4d19;fill-opacity:1;stroke:#ff4d19;stroke-width:0.11972396;stroke-opacity:1"
       d="m 241.05247,194.70379 c -16.5773,0 -32.97172,-0.078 -33.07632,0.0266 -0.1041,0.10408 -0.31908,0.93543 -0.29938,2.67449 l 0.1527,2.75946 -0.0897,-2.68504 c 0.022,-1.46428 0.13125,-2.39008 0.21415,-2.49002 0.1961,-0.23623 66.16185,-0.36519 66.35795,-0.12887 0.083,0.0999 0.0321,1.1547 0.0543,2.61898 l 0.0517,2.97743 0.0103,-3.05185 c 0.02,-1.73906 -0.012,-2.44048 -0.1163,-2.54456 -0.1046,-0.10463 -16.6821,-0.15658 -33.2594,-0.15658 z m -174.181102,0.37207 -0.063,0.62839 c -0.035,0.34582 -0.091,1.43104 -0.1256,2.41175 -0.034,0.98072 -0.095,1.81629 -0.1349,1.85623 -0.04,0.0399 -14.3585,0.0994 -31.8192,0.13229 l -31.7468998,0.0599 v 2.39419 2.3947 h 31.7866998 31.7867 l 0.032,-2.42467 0.033,-2.42416 h 33.100795 33.101297 v 2.55386 c 0,1.40477 0.036,2.59048 0.08,2.63448 0.044,0.044 16.9207,0.0662 37.50371,0.0496 l 37.4235,-0.03 v -2.57401 -2.57402 l -37.3817,-0.0305 -37.38121,-0.03 -0.032,-2.4841 -0.032,-2.4841 -33.065097,-0.03 z m 158.117902,-0.19811 c -2.45352,-0.27141 -4.3915,0.0503 -5.906,0.0553 l -11.40832,-0.23209 0.002,2.70402 0.0169,2.78308 33.38884,-0.11318 33.014,0.0305 v 2.37404 c 0,1.30587 0.036,2.41062 0.08,2.45464 0.044,0.044 14.3615,0.0662 31.8166,0.0496 l 31.7366,-0.03 0.033,-2.34457 0.033,-2.3451 -12.4137,-0.0796 c -6.8276,-0.0438 -20.0736,-0.0796 -29.4354,-0.0796 -17.8583,0 -21.42021,0.2168 -21.51601,-0.0328 -0.031,-0.08 -0.017,-1.37404 -0.0646,-2.59258 l 0.0635,-2.73835 -22.41304,0.0943 c -9.04238,-0.12644 -18.83239,-0.0529 -26.15152,0.0721 z M 66.734468,208.12579 v 2.57453 2.57402 h 33.025895 33.025897 l 0.078,1.09554 c 0.043,0.60276 0.078,1.81507 0.078,2.69391 v 1.59785 h 13.7009 13.701 l 0.066,-0.5085 c 0.036,-0.27986 0.08,-1.46512 0.097,-2.63397 l 0.032,-2.12546 h -13.738 -13.7387 v -2.63396 -2.63396 H 99.899063 Z m 141.334002,0.0599 -0.033,2.39108 c -0.018,1.31511 -0.01,2.46028 0.026,2.54456 0.048,0.12416 6.3271,0.14741 33.0166,0.12299 l 32.9576,-0.03 v -2.51408 -2.51458 h -32.984 z m 87.3388,5.20695 -10.6257,0.0305 -10.6257,0.0305 -0.032,2.51148 c -0.018,1.38112 -0.01,2.58171 0.028,2.66859 0.05,0.12976 1.7446,0.14598 9.4909,0.0894 5.1865,-0.0379 9.9204,-0.0986 10.5198,-0.13487 l 1.0898,-0.0662 0.077,-1.26557 c 0.043,-0.69623 0.078,-1.85027 0.078,-2.56471 z m -114.8751,0.061 -0.033,2.51148 c -0.018,1.38112 -0.01,2.57965 0.026,2.66394 0.047,0.12361 2.7007,0.14752 13.6808,0.12299 l 13.6224,-0.0305 v -2.63396 -2.63396 h -13.6488 z m 125.4704,0 0.041,2.51407 c 0.022,1.38282 0.067,2.54161 0.1,2.57454 0.033,0.0329 4.3244,0.0885 9.5374,0.1235 5.213,0.0351 9.9357,0.0621 10.4954,0.0599 l 1.0181,-0.004 v -2.63397 -2.63395 h -10.5958 z m -32.02619,7.8738 -7.70891,-0.003 -7.6755,0.031 v 2.69391 2.6939 l 7.722,0.0646 c 4.2472,0.0356 7.70269,-0.0241 7.7525,0.0899 0.008,0.0194 0.03,1.01472 0.03,2.22469 0,1.20996 0.034,2.36892 0.075,2.57505 l 0.075,0.37465 10.6102,-0.0305 10.6102,-0.0305 0.033,-2.66393 c 0.025,-2.02648 0.018,-2.51458 -0.092,-2.63552 v -0.001 0 c -0.024,-0.0261 -0.052,-0.0407 -0.087,-0.0434 -0.1165,-0.009 -4.8871,-0.0494 -10.6019,-0.0899 -9.0515,-0.0642 -10.55584,0.003 -10.65464,-0.15298 -0.062,-0.0988 0.003,-1.0547 7.3e-4,-2.04242 0,-0.98772 -0.037,-2.079 -0.079,-2.42519 z m -34.18391,0.37215 0.003,-0.36616 -15.80235,-0.0379 h -15.9799 l -0.032,2.604 -0.033,2.60398 -13.7382,0.0305 -13.7382,0.0305 v 2.75334 2.75282 h 13.7082 13.7083 v -2.55851 -2.29651 -0.26253 l 0.8051,-0.0723 c 0.4444,-0.04 7.6061,-0.1091 15.9148,-0.15348 l 15.16302,-0.0561 0.007,-0.87411 c 0.0143,-0.47033 -0.0251,-1.6869 0.01,-2.69109 l 0.007,-1.69295 -0.73617,0.0745 z m 87.4661,4.94709 -10.4934,0.0656 c -7.8681,0.0491 -10.5153,0.10086 -10.5808,0.2067 -0.1465,0.2373 -0.2434,2.39228 -0.1627,3.62047 0.059,0.89291 0.1205,1.18155 0.2682,1.25368 0.1055,0.0516 4.475,0.12474 9.71,0.16227 5.2349,0.0375 9.895,0.0655 10.3559,0.062 l 0.8382,-0.006 0.032,-2.68254 z m -119.1901,7.99852 -0.033,2.51097 c -0.018,1.38112 -0.01,2.58115 0.027,2.66705 0.049,0.12759 2.2898,0.14449 12.2447,0.0904 6.7014,-0.0364 13.8139,-0.098 15.8058,-0.13695 l 3.6215,-0.0708 v -2.42726 l 0.0177,-2.53305 -3.14841,-0.0181 c -1.7285,-0.0391 -8.86551,-0.0324 -15.84551,-0.0502 z m 50.5235,0 -0.033,2.51097 c -0.018,1.38112 -0.01,2.57997 0.027,2.66446 0.047,0.12335 1.58,0.1477 7.7546,0.12299 l 7.6956,-0.031 v -2.63345 -2.63396 h -7.7225 z m -78.1198,5.20799 v 2.69338 2.69392 h 13.7082 13.7083 v -2.69392 -2.69338 h -13.7083 z m 93.6842,0.0594 -0.033,2.51148 c -0.018,1.38112 -0.01,2.57978 0.026,2.66394 v 0 c 0.048,0.12361 5.1352,0.14741 26.5509,0.12299 l 26.4929,-0.0305 v -2.63401 -2.63395 h -26.5183 z m -93.6842,13.46899 v 2.57452 2.574 h 13.7082 13.7083 v -2.574 -2.57452 h -13.7083 z"
       id="path16317-9"
       sodipodi:nodetypes="cccccccccccsccccccccccccccsscccccccccccccccccsccccccscccsccccccccsccccccccccccccccccccccccccccccccccccccccccccccccccccccccccscccccccccccccccccccccccccccccccccccccccccccccccccccccccccccccccccccccccccccccccccccccccccccccccc" />
    <path
       style="opacity:1;fill:#ff4d19;fill-opacity:1;stroke:#ff4d19;stroke-width:0.11972396;stroke-opacity:1"
       d="m 132.82196,229.45667 v -2.65362 h -15.8634 -15.8635 v -2.75366 -2.75367 h 15.9832 15.9831 v 2.61521 2.61519 l 1.8857,0.0782 c 1.0371,0.043 6.8961,0.0788 13.02,0.0797 6.1238,7.9e-4 11.4171,0.0354 11.7628,0.0769 l 0.6286,0.0755 v 2.55741 2.55739 l -5.5971,1e-4 c -3.0784,5e-5 -9.2741,0.0358 -13.7683,0.0795 l -8.1711,0.0794 z"
       id="path16381"
       inkscape:connector-curvature="0" />
    <path
       style="opacity:1;fill:#ff4d19;fill-opacity:1;stroke:#ff4d19;stroke-width:0.11972396;stroke-opacity:1"
       d="m 132.82196,242.60671 v -2.63394 h -15.8634 -15.8635 v -2.69381 -2.6938 h 8.8998 c 4.8948,0 12.0603,0.0358 15.9232,0.0795 l 7.0236,0.0795 8e-4,1.56674 c 3e-4,0.86169 0.035,2.01121 0.078,2.55446 l 0.077,0.98773 h 4.093 c 2.2511,0 8.3849,0.0358 13.6307,0.0796 l 9.5379,0.0796 v 2.53509 2.53511 l -3.4316,0.0791 c -1.8874,0.0435 -8.0831,0.0791 -13.7683,0.0791 h -10.3367 z"
       id="path16383"
       inkscape:connector-curvature="0" />
    <path
       style="opacity:1;fill:#ff4d19;fill-opacity:1;stroke:#ff4d19;stroke-width:0.11972396;stroke-opacity:1"
       d="m 132.82196,255.95596 v -2.57406 h 13.8281 13.8281 v 2.57406 2.57407 h -13.8281 -13.8281 z"
       id="path16385"
       inkscape:connector-curvature="0" />
    <path
       style="opacity:1;fill:#ff4d19;fill-opacity:1;stroke:#ff4d19;stroke-width:0.11972396;stroke-opacity:1"
       d="m 13.576868,242.54684 v -2.69379 h 26.5787 26.5788 v -2.63395 -2.63394 h 7.7222 7.7222 v 2.6938 2.69381 h -7.7821 -7.7821 v 2.63394 2.63394 h -26.5188 -26.5189 z"
       id="path16387-8"
       inkscape:connector-curvature="0" />
    <path
       style="opacity:1;fill:#ff4d19;fill-opacity:1;stroke:#ff4d19;stroke-width:0.11972396;stroke-opacity:1"
       d="m 46.956568,231.95802 c -0.7701,-0.0404 -1.4436,-0.11744 -1.4966,-0.17119 -0.1158,-0.11745 -0.095,-4.84489 0.021,-4.96186 0.045,-0.045 4.8317,-0.11463 10.6374,-0.15479 5.8057,-0.0402 10.5693,-0.0806 10.5857,-0.0898 0.016,-0.009 0.03,-1.20206 0.03,-2.65072 v -2.63394 h 7.7221 7.7222 v 2.75367 2.75366 h -7.782 -7.7821 v 2.63395 2.63393 l -9.1289,-0.0197 c -5.0209,-0.0109 -9.759,-0.0528 -10.5291,-0.0932 z"
       id="path16389-0"
       inkscape:connector-curvature="0" />
    <path
       style="opacity:1;fill:#ff4d19;fill-opacity:1;stroke:#ff4d19;stroke-width:0.11972396;stroke-opacity:1"
       d="m 45.886168,218.69511 c -0.5641,-0.0598 -0.5824,-0.15569 -0.5824,-3.04141 v -2.2598 h 10.6554 10.6554 v 2.6938 2.69381 l -10.1466,-0.0201 c -5.5806,-0.0111 -10.3424,-0.0409 -10.5818,-0.0663 z"
       id="path16391-1"
       inkscape:connector-curvature="0" />
    <path
       style="opacity:1;fill:#ff4d19;fill-opacity:1;stroke:#ff4d19;stroke-width:0.11972396;stroke-opacity:1"
       d="m 13.576868,216.10221 v -2.70831 h 10.654 10.6539 l -0.075,2.60401 c -0.041,1.43221 -0.097,2.62921 -0.1243,2.66001 -0.027,0.0308 -4.7877,0.0777 -10.579,0.1043 l -10.5296,0.0483 z"
       id="path16393-5"
       inkscape:connector-curvature="0" />
    <path
       style="opacity:1;fill:#ff4d19;fill-opacity:1;stroke:#ff4d19;stroke-width:0.11972396;stroke-opacity:1"
       d="m 13.576868,229.36679 v -2.74332 l 9.8473,0.03 c 5.416,0.0165 10.184,0.0612 10.5956,0.0993 l 0.7483,0.0693 v 2.56456 2.56454 l -4.2203,1.2e-4 c -2.3211,7e-5 -7.0892,0.0358 -10.5956,0.0795 l -6.3753,0.0793 z"
       id="path16395-4"
       inkscape:connector-curvature="0" />
    <path
       inkscape:connector-curvature="0"
       style="opacity:1;fill:#566060;fill-opacity:1;stroke:#566060;stroke-width:0.11972396;stroke-opacity:1"
       d="m 299.68817,161.21468 c -3.3231,0.0238 -5.1214,0.4352 -8.0533,1.70379 -6.537,2.82857 -11.936,8.58688 -14.9479,15.94176 -1.3492,3.29485 -2.3156,7.76793 -2.5393,11.75593 l -0.082,1.46659 h 10.7306 10.7306 v -2.33425 -2.33475 h -8.0812 -8.0817 v -0.59066 c 0,-1.5651 1.5623,-6.13605 3.0712,-8.9871 2.3703,-4.47877 5.7456,-7.91627 9.7394,-9.91832 2.7695,-1.38828 4.8258,-1.91352 7.9019,-2.01745 4.5758,-0.15461 8.2803,1.02052 12.0085,3.80909 3.0027,2.24582 5.5947,5.39801 7.303,8.88064 1.4343,2.92434 3.0365,8.19368 2.6184,8.61193 -0.1193,0.11931 -1.8698,0.1593 -8.1075,0.18655 l -7.9561,0.0346 v 2.3301 2.32959 h 10.6743 10.6743 l -0.077,-1.70585 c -0.3737,-8.30927 -3.5074,-15.85931 -8.875,-21.38124 -3.1971,-3.28909 -6.7431,-5.58559 -10.5518,-6.83373 -2.2353,-0.73252 -3.1732,-0.8658 -6.5737,-0.93484 -0.5447,-0.0111 -1.0508,-0.0158 -1.5255,-0.0124 z"
       id="path16397-7" />
    <path
       style="opacity:1;fill:#566060;fill-opacity:1;stroke:#566060;stroke-width:0.11972396;stroke-opacity:1"
       d="m 132.86816,190.49656 c 0.22,-4.25773 0.9819,-9.02196 1.999,-12.50061 4.3642,-14.92594 15.7735,-26.41038 28.8183,-29.0081 2.7045,-0.53857 3.928,-0.65575 6.78971,-0.65032 2.8505,0.005 4.5772,0.18214 7.0038,0.71684 8.0573,1.77536 15.6471,6.90538 21.264,14.37246 1.5751,2.09394 2.5279,3.63625 3.7609,6.08799 3.2687,6.49956 5.3719,14.7448 5.3826,21.10147 v 1.46663 h -13.7084 -13.7084 v -2.33464 -2.33463 h 11.2541 c 8.9241,0 11.2538,-0.031 11.2528,-0.14965 -8e-4,-0.0823 -0.1058,-0.82658 -0.2335,-1.65394 -1.1416,-7.39528 -4.3751,-15.13338 -8.4517,-20.22574 -1.8325,-2.28907 -5.7835,-5.95604 -8.1062,-7.52335 -3.6285,-2.44853 -8.2534,-4.16029 -12.6574,-4.68476 -1.6142,-0.19222 -4.95351,-0.16367 -6.64671,0.0568 -5.2145,0.6791 -10.2976,2.86733 -14.5465,6.26209 -2.4838,1.98457 -5.9232,5.77697 -7.8326,8.63647 -3.0211,4.52452 -5.5156,11.36321 -6.5202,17.87527 l -0.2171,1.40677 h 11.3556 11.3555 v 2.33462 2.33464 h -13.8456 -13.846 z"
       id="path16402-2"
       inkscape:connector-curvature="0" />
    <path
       style="opacity:1;fill:#566060;fill-opacity:1;stroke:#566060;stroke-width:0.11972396;stroke-opacity:1"
       d="m 13.609668,190.19725 c 0.104,-2.9407 0.8066,-6.6175 1.8456,-9.65763 2.6584,-7.77848 7.9419,-13.96472 14.6789,-17.18693 3.8283,-1.83098 5.8183,-2.23008 10.607,-2.12719 3.2522,0.0699 4.2583,0.21808 6.4691,0.95283 9.2965,3.08963 16.5221,11.87399 18.6848,22.71565 0.3876,1.94277 0.5667,3.4013 0.6953,5.66244 l 0.087,1.5265 h -10.6868 -10.6867 v -2.33058 -2.33056 l 7.9574,-0.034 c 6.9736,-0.0298 7.9802,-0.0568 8.1417,-0.21828 0.1658,-0.16587 0.1371,-0.36924 -0.287,-2.03532 -0.5101,-2.00409 -1.0593,-3.66211 -1.7433,-5.26319 -2.6608,-6.22813 -7.776,-11.23519 -13.3725,-13.08983 -2.1439,-0.71047 -3.182,-0.85864 -5.9642,-0.8513 -2.8276,0.008 -3.7979,0.15161 -6.0104,0.89286 -4.7091,1.57771 -9.4266,5.75265 -12.0383,10.65378 -1.5836,2.97197 -3.2615,7.8215 -3.262,9.42831 l -10e-5,0.50883 h 8.0813 8.0814 v 2.33463 2.33464 h -10.6724 -10.6724 z"
       id="path16404-6"
       inkscape:connector-curvature="0" />
    <path
       style="opacity:1;fill:#566060;fill-opacity:1;stroke:#566060;stroke-width:0.11972396;stroke-opacity:1"
       d="m 128.15276,286.36585 v -9.51806 l 2.0652,5.3e-4 c 4.3203,10e-4 6.9619,0.3098 8.2422,0.96296 2.1154,1.0792 3.2153,4.09324 2.506,6.86691 -0.8439,3.29957 -2.9741,4.70915 -7.6354,5.05254 l -1.1074,0.0816 v 3.03578 3.03579 h -2.0353 -2.0353 z m 7.1741,-0.6677 c 0.8259,-0.13996 1.1384,-0.34861 1.4681,-0.98026 0.3534,-0.67698 0.3828,-2.19516 0.057,-2.91911 -0.3828,-0.84968 -0.8158,-1.0001 -2.8786,-1.0001 h -1.7496 v 2.57955 2.57955 l 1.2271,-0.0748 c 0.675,-0.0411 1.5193,-0.12431 1.8764,-0.18482 z"
       id="path16406-6"
       inkscape:connector-curvature="0" />
    <path
       style="opacity:1;fill:#566060;fill-opacity:1;stroke:#566060;stroke-width:0.11972396;stroke-opacity:1"
       d="m 169.93637,286.36585 v -9.51806 h 2.0353 2.0353 v 9.51806 9.51805 h -2.0353 -2.0353 z"
       id="path16408-6"
       inkscape:connector-curvature="0" />
    <path
       style="opacity:1;fill:#566060;fill-opacity:1;stroke:#566060;stroke-width:0.11972396;stroke-opacity:1"
       d="m 204.86697,286.93456 c 0.017,-4.92216 0.061,-9.17836 0.097,-9.45821 l 0.066,-0.50883 h 1.0521 c 0.5787,0 1.4643,-0.0349 1.9681,-0.0774 l 0.916,-0.0774 0.016,2.0828 c 0.01,1.14555 0.049,2.9169 0.09,3.93635 l 0.074,1.85354 1.6306,-2.51202 c 0.8968,-1.38162 2.0447,-3.15206 2.5509,-3.93432 l 0.9204,-1.42229 2.2668,0.0543 c 1.2467,0.0299 2.2997,0.0872 2.34,0.12751 0.071,0.0714 -0.4977,0.92177 -3.6643,5.4763 -0.847,1.21819 -1.74,2.59221 -1.9845,3.05338 l -0.4446,0.83849 3.1369,4.47821 c 1.7253,2.46301 3.19,4.57744 3.2549,4.69874 0.1128,0.21074 0.014,0.22054 -2.222,0.22054 -2.0829,0 -2.359,-0.023 -2.5129,-0.20952 -0.095,-0.11523 -1.1496,-1.63722 -2.3434,-3.3822 -2.182,-3.18952 -2.7819,-3.95796 -2.9549,-3.7853 -0.052,0.0514 -0.11,1.7592 -0.1299,3.7951 l -0.036,3.70164 -2.0589,3e-5 -2.0588,2e-5 z"
       id="path16410-2"
       inkscape:connector-curvature="0" />
    <path
       style="fill:#566060;stroke:#566060;stroke-width:0.26458332px;stroke-linecap:butt;stroke-linejoin:miter;stroke-opacity:1;fill-opacity:1"
       d="m 207.67495,194.70096 0.0189,5.4871 66.40285,-0.0827 0.33298,-5.36432 z"
       id="path19513"
       inkscape:connector-curvature="0" />
    <path
       style="fill:none;stroke:#000000;stroke-width:0.26458332px;stroke-linecap:butt;stroke-linejoin:miter;stroke-opacity:1"
       d="m 274.09669,200.10538 h 0.25056 l 0.0543,-5.01548 z"
       id="path19517"
       inkscape:connector-curvature="0" />
    <path
       style="opacity:1;fill:#566060;fill-opacity:1;stroke:#566060;stroke-width:0.01578363;stroke-opacity:1"
       d="m 1035.4365,201.1093 c 0.01,-0.0946 1.1749,-19.29869 1.1749,-19.34721 0,-0.0259 0.023,-0.027 0.3433,-0.0173 0.1889,0.006 0.4128,0.0147 0.4977,0.0201 l 0.1543,0.01 -0.01,0.48329 c -0.01,0.53053 -0.1753,15.87236 -0.1891,17.58485 0,0.58596 -0.013,1.13109 -0.018,1.21139 l -0.01,0.146 h -0.9769 -0.9768 z"
       id="path19519"
       inkscape:connector-curvature="0"
       transform="matrix(0.26458333,0,0,0.26458333,0,147)" />
    <path
       style="opacity:1;fill:#566060;fill-opacity:1;stroke:#566060;stroke-width:0.01578363;stroke-opacity:1"
       d="m 1005.0284,190.58921 v -10.66272 l 16.3479,0.009 c 8.9913,0.005 16.3511,0.0114 16.355,0.0149 0,0.003 -0.023,0.49305 -0.06,1.08796 l -0.067,1.08166 -0.054,4.95902 c -0.03,2.72746 -0.068,6.30497 -0.086,7.95002 -0.018,1.64505 -0.039,3.65154 -0.048,4.45887 -0.01,0.80734 -0.02,1.52293 -0.026,1.59021 l -0.01,0.12232 -0.9803,-5.2e-4 c -0.5391,-2.9e-4 -1.552,0.003 -2.2508,0.008 -0.6988,0.005 -5.7523,0.0119 -11.2301,0.0163 -5.4777,0.004 -11.744,0.0126 -13.9251,0.0182 l -3.9656,0.0101 z m 30.4104,10.38612 c 0,-0.0196 -0.01,-0.007 -0.01,0.0274 -2e-4,0.0347 0,0.0508 0.01,0.0357 0,-0.0151 0,-0.0435 3e-4,-0.0631 z m 0.016,-0.26851 c 0,-0.0195 -0.01,-0.004 -0.01,0.0355 0,0.0391 0,0.055 0.01,0.0355 0,-0.0195 0,-0.0515 0,-0.071 z m 0.016,-0.25254 c 0,-0.0195 -0.01,-0.004 -0.01,0.0355 0,0.0391 0,0.055 0.01,0.0355 0,-0.0195 0,-0.0515 0,-0.071 z m 0.016,-0.26021 c 0,-0.024 -0.01,-0.008 -0.01,0.0353 -10e-5,0.0434 0,0.063 0.01,0.0436 0,-0.0194 0,-0.0549 3e-4,-0.0789 z m 0.015,-0.26065 c 0,-0.0195 -0.01,-0.004 -0.01,0.0355 0,0.0391 0,0.055 0.01,0.0355 0,-0.0195 0,-0.0515 0,-0.071 z m 0.016,-0.26021 c 0,-0.024 -0.01,-0.008 -0.01,0.0353 -10e-5,0.0434 0,0.063 0.01,0.0436 0,-0.0194 0,-0.0549 2e-4,-0.0789 z m 0.016,-0.25254 c 0,-0.024 -0.01,-0.008 -0.01,0.0353 -2e-4,0.0434 0,0.063 0.01,0.0436 0,-0.0194 0,-0.0549 2e-4,-0.0789 z m 0.016,-0.26854 c 0,-0.0239 -0.01,-0.004 -0.01,0.0434 0,0.0477 0,0.0673 0.01,0.0434 0,-0.0239 0,-0.0629 0,-0.0868 z m 0.016,-0.25232 c 0,-0.024 -0.01,-0.008 -0.01,0.0353 -2e-4,0.0434 0,0.063 0.01,0.0436 0,-0.0194 0,-0.0549 2e-4,-0.0789 z m 0.016,-0.26854 c 0,-0.0239 -0.01,-0.004 -0.01,0.0434 0,0.0477 0,0.0673 0.01,0.0434 0,-0.0239 0,-0.0629 0,-0.0868 z m 0.016,-0.25254 c 0,-0.0239 -0.01,-0.004 -0.01,0.0434 0,0.0477 0,0.0673 0.01,0.0434 0,-0.0239 0,-0.0629 0,-0.0868 z m 0.016,-0.26014 c 0,-0.0284 -0.01,-0.009 -0.01,0.0431 -2e-4,0.0521 0,0.0753 0.01,0.0516 0,-0.0237 0,-0.0663 10e-5,-0.0947 z m 0.016,-0.26072 c 0,-0.0239 -0.01,-0.004 -0.01,0.0434 0,0.0477 0,0.0673 0.01,0.0434 0,-0.0239 0,-0.0629 0,-0.0868 z m 0.016,-0.26014 c 0,-0.0284 -0.01,-0.009 -0.01,0.0431 -2e-4,0.0521 0,0.0753 0.01,0.0516 0,-0.0237 0,-0.0663 2e-4,-0.0947 z m 0.016,-0.25254 c 0,-0.0284 -0.01,-0.009 -0.01,0.0431 -1e-4,0.0521 0,0.0753 0.01,0.0516 0,-0.0237 0,-0.0663 2e-4,-0.0947 z m 0.016,-0.26071 c 0,-0.0239 -0.01,-0.004 -0.01,0.0434 0,0.0478 0,0.0673 0.01,0.0434 0,-0.0239 0,-0.0629 0,-0.0868 z m 0.016,-0.26015 c 0,-0.0284 -0.01,-0.009 -0.01,0.0431 -2e-4,0.0521 0,0.0753 0.01,0.0516 0,-0.0237 0,-0.0663 10e-5,-0.0947 z m 0.016,-0.26071 c 0,-0.0239 -0.01,-0.004 -0.01,0.0434 0,0.0478 0,0.0673 0.01,0.0434 0,-0.0239 0,-0.0629 0,-0.0868 z m 0.016,-0.26015 c 0,-0.0284 -0.01,-0.009 -0.01,0.0431 -2e-4,0.0521 0,0.0753 0.01,0.0516 0,-0.0237 0,-0.0663 10e-5,-0.0947 z m 0.016,-0.26071 c 0,-0.0239 -0.01,-0.004 -0.01,0.0434 0,0.0477 0,0.0673 0.01,0.0434 0,-0.0239 0,-0.0629 0,-0.0868 z m 0.016,-0.26015 c 0,-0.0284 -0.01,-0.009 -0.01,0.0431 -1e-4,0.0521 0,0.0753 0.01,0.0516 0,-0.0237 0,-0.0663 2e-4,-0.0947 z m 0.016,-0.26071 c 0,-0.0239 -0.01,-0.004 -0.01,0.0434 0,0.0477 0,0.0673 0.01,0.0434 0,-0.0239 0,-0.0629 0,-0.0868 z m 0.016,-0.26015 c 0,-0.0284 -0.01,-0.009 -0.01,0.0431 -2e-4,0.0521 0,0.0753 0.01,0.0516 0,-0.0237 0,-0.0663 2e-4,-0.0947 z m 0.016,-0.25254 c 0,-0.0284 -0.01,-0.009 -0.01,0.0431 -2e-4,0.0521 0,0.0753 0.01,0.0516 0,-0.0237 0,-0.0663 10e-5,-0.0947 z m 0.016,-0.26832 c 0,-0.0284 -0.01,-0.009 -0.01,0.0431 -2e-4,0.0521 0,0.0753 0.01,0.0516 0,-0.0237 0,-0.0663 10e-5,-0.0947 z m 0.016,-0.25254 c 0,-0.0284 -0.01,-0.009 -0.01,0.0431 -2e-4,0.0521 0,0.0753 0.01,0.0516 0,-0.0237 0,-0.0663 2e-4,-0.0947 z m 0.016,-0.26832 c 0,-0.0284 -0.01,-0.009 -0.01,0.0431 -1e-4,0.0521 0,0.0753 0.01,0.0516 0,-0.0237 0,-0.0663 2e-4,-0.0947 z m 0.016,-0.25254 c 0,-0.0284 -0.01,-0.009 -0.01,0.0431 -10e-5,0.0521 0,0.0753 0.01,0.0516 0,-0.0237 0,-0.0663 2e-4,-0.0947 z m 0.016,-0.26071 c 0,-0.0239 -0.01,-0.004 -0.01,0.0434 0,0.0478 0,0.0673 0.01,0.0434 0,-0.0239 0,-0.0629 0,-0.0868 z m 0.016,-0.26015 c 0,-0.0284 -0.01,-0.009 -0.01,0.0431 -2e-4,0.0521 0,0.0753 0.01,0.0516 0,-0.0237 0,-0.0663 10e-5,-0.0947 z m 0.016,-0.26071 c 0,-0.0239 -0.01,-0.004 -0.01,0.0434 0,0.0478 0,0.0673 0.01,0.0434 0,-0.0239 0,-0.0629 0,-0.0868 z m 0.016,-0.26015 c 0,-0.0284 -0.01,-0.009 -0.01,0.0431 -2e-4,0.0521 0,0.0753 0.01,0.0516 0,-0.0237 0,-0.0663 2e-4,-0.0947 z m 0.016,-0.26071 c 0,-0.0239 -0.01,-0.004 -0.01,0.0434 0,0.0478 0,0.0673 0.01,0.0434 0,-0.0239 0,-0.0629 0,-0.0868 z m 0.016,-0.26015 c 0,-0.0284 -0.01,-0.009 -0.01,0.0431 -10e-5,0.0521 0,0.0753 0.01,0.0516 0,-0.0237 0,-0.0663 2e-4,-0.0947 z m 0.016,-0.25254 c 0,-0.0284 -0.01,-0.009 -0.01,0.0431 -10e-5,0.0521 0,0.0753 0.01,0.0516 0,-0.0237 0,-0.0663 2e-4,-0.0947 z m 0.016,-0.26832 c 0,-0.0284 -0.01,-0.009 -0.01,0.0431 -2e-4,0.0521 0,0.0753 0.01,0.0516 0,-0.0237 0,-0.0663 10e-5,-0.0947 z m 0.016,-0.25254 c 0,-0.0284 -0.01,-0.009 -0.01,0.0431 -2e-4,0.0521 0,0.0753 0.01,0.0516 0,-0.0237 0,-0.0663 10e-5,-0.0947 z m 0.016,-0.26832 c 0,-0.0284 -0.01,-0.009 -0.01,0.0431 -2e-4,0.0521 0,0.0753 0.01,0.0516 0,-0.0237 0,-0.0663 2e-4,-0.0947 z m 0.016,-0.25254 c 0,-0.0284 -0.01,-0.009 -0.01,0.0431 -1e-4,0.0521 0,0.0753 0.01,0.0516 0,-0.0237 0,-0.0663 2e-4,-0.0947 z m 0.016,-0.26071 c 0,-0.0239 -0.01,-0.004 -0.01,0.0434 0,0.0477 0,0.0673 0.01,0.0434 0,-0.0239 0,-0.0629 0,-0.0868 z m 0.016,-0.26015 c 0,-0.0284 -0.01,-0.009 -0.01,0.0431 -10e-5,0.0521 0,0.0753 0.01,0.0516 0,-0.0237 0,-0.0663 2e-4,-0.0947 z m 0.016,-0.26071 c 0,-0.0239 -0.01,-0.004 -0.01,0.0434 0,0.0477 0,0.0673 0.01,0.0434 0,-0.0239 0,-0.0629 0,-0.0868 z m 0.016,-0.26015 c 0,-0.0284 -0.01,-0.009 -0.01,0.0431 -2e-4,0.0521 0,0.0753 0.01,0.0516 0,-0.0237 0,-0.0663 10e-5,-0.0947 z m 0.016,-0.26071 c 0,-0.0239 -0.01,-0.004 -0.01,0.0434 0,0.0477 0,0.0673 0.01,0.0434 0,-0.0239 0,-0.0629 0,-0.0868 z m 0.016,-0.26832 c 0,-0.0239 -0.01,-0.004 -0.01,0.0434 0,0.0477 0,0.0673 0.01,0.0434 0,-0.0239 0,-0.0629 0,-0.0868 z m 0.016,-0.25254 c 0,-0.0239 -0.01,-0.004 -0.01,0.0434 0,0.0477 0,0.0673 0.01,0.0434 0,-0.0239 0,-0.0629 0,-0.0868 z m 0.016,-0.25232 c 0,-0.024 -0.01,-0.008 -0.01,0.0353 -10e-5,0.0434 0,0.063 0.01,0.0436 0,-0.0194 0,-0.0549 3e-4,-0.0789 z m 0.016,-0.26832 c 0,-0.024 -0.01,-0.008 -0.01,0.0353 -10e-5,0.0434 0,0.063 0.01,0.0436 0,-0.0194 0,-0.0549 2e-4,-0.0789 z m 0.016,-0.25254 c 0,-0.024 -0.01,-0.008 -0.01,0.0353 -2e-4,0.0434 0,0.063 0.01,0.0436 0,-0.0194 0,-0.0549 2e-4,-0.0789 z m 0.016,-0.26854 c 0,-0.0239 -0.01,-0.004 -0.01,0.0434 0,0.0477 0,0.0673 0.01,0.0434 0,-0.0239 0,-0.0629 0,-0.0868 z m 0.016,-0.25232 c 0,-0.024 -0.01,-0.008 -0.01,0.0353 -2e-4,0.0434 0,0.063 0.01,0.0436 0,-0.0194 0,-0.0549 2e-4,-0.0789 z m 0.016,-0.26854 c 0,-0.0239 -0.01,-0.004 -0.01,0.0434 0,0.0477 0,0.0673 0.01,0.0434 0,-0.0239 0,-0.0629 0,-0.0868 z m 0.016,-0.25232 c 0,-0.024 -0.01,-0.008 -0.01,0.0353 -10e-5,0.0434 0,0.063 0.01,0.0436 0,-0.0194 0,-0.0549 3e-4,-0.0789 z m 0.015,-0.26065 c 0,-0.0195 -0.01,-0.004 -0.01,0.0355 0,0.0391 0,0.055 0.01,0.0355 0,-0.0195 0,-0.0515 0,-0.071 z m 0.016,-0.26021 c 0,-0.024 -0.01,-0.008 -0.01,0.0353 -2e-4,0.0434 0,0.063 0.01,0.0436 0,-0.0194 0,-0.0549 2e-4,-0.0789 z m 0.016,-0.26065 c 0,-0.0195 -0.01,-0.004 -0.01,0.0355 0,0.0391 0,0.055 0.01,0.0355 0,-0.0195 0,-0.0515 0,-0.071 z m 0.016,-0.26021 c 0,-0.024 -0.01,-0.008 -0.01,0.0353 -2e-4,0.0434 0,0.063 0.01,0.0436 0,-0.0194 0,-0.0549 2e-4,-0.0789 z m 0.016,-0.26065 c 0,-0.0195 -0.01,-0.004 -0.01,0.0355 0,0.0391 0,0.055 0.01,0.0355 0,-0.0195 0,-0.0515 0,-0.071 z m 0.016,-0.26021 c 0,-0.024 -0.01,-0.008 -0.01,0.0353 -10e-5,0.0434 0,0.063 0.01,0.0436 0,-0.0194 0,-0.0549 3e-4,-0.0789 z m 0.015,-0.26065 c 0,-0.0195 -0.01,-0.004 -0.01,0.0355 0,0.0391 0,0.055 0.01,0.0355 0,-0.0195 0,-0.0515 0,-0.071 z m 0.016,-0.25235 c 0,-0.0196 -0.01,-0.007 -0.01,0.0274 -2e-4,0.0347 0,0.0508 0.01,0.0357 0,-0.0151 0,-0.0435 4e-4,-0.0631 z m 0.016,-0.26851 c 0,-0.0195 -0.01,-0.004 -0.01,0.0355 0,0.0391 0,0.055 0.01,0.0355 0,-0.0195 0,-0.0515 0,-0.071 z m 0.016,-0.25235 c 0,-0.0196 -0.01,-0.007 -0.01,0.0274 -10e-5,0.0347 0,0.0508 0.01,0.0357 0,-0.0151 0,-0.0435 3e-4,-0.0631 z m 0.016,-0.26832 c 0,-0.0196 -0.01,-0.007 -0.01,0.0274 -10e-5,0.0347 0,0.0508 0.01,0.0357 0,-0.0151 0,-0.0435 3e-4,-0.0631 z m 0.016,-0.25254 c 0,-0.0196 -0.01,-0.007 -0.01,0.0274 -2e-4,0.0347 0,0.0508 0.01,0.0357 0,-0.0151 0,-0.0435 3e-4,-0.0631 z m 0.016,-0.26851 c 0,-0.0195 -0.01,-0.004 -0.01,0.0355 0,0.0391 0,0.055 0.01,0.0355 0,-0.0195 0,-0.0515 0,-0.071 z m 0.016,-0.25235 c 0,-0.0196 -0.01,-0.007 -0.01,0.0274 -2e-4,0.0347 0,0.0508 0.01,0.0357 0,-0.0151 0,-0.0435 4e-4,-0.0631 z m 0.015,-0.26061 c 0,-0.0152 -0.01,-0.003 -0.01,0.0276 0,0.0304 0,0.0428 0.01,0.0276 0,-0.0152 0,-0.0401 0,-0.0552 z m 0.016,-0.26025 c 0,-0.0196 -0.01,-0.007 -0.01,0.0274 -10e-5,0.0347 0,0.0508 0.01,0.0357 0,-0.0151 0,-0.0435 3e-4,-0.0631 z m 0.015,-0.26061 c 0,-0.0152 -0.01,-0.003 -0.01,0.0276 0,0.0304 0,0.0428 0.01,0.0276 0,-0.0152 0,-0.0401 0,-0.0552 z m 0.016,-0.26025 c 0,-0.0196 -0.01,-0.007 -0.01,0.0274 -2e-4,0.0347 0,0.0508 0.01,0.0357 0,-0.0151 0,-0.0435 3e-4,-0.0631 z m 0.015,-0.26061 c 0,-0.0152 -0.01,-0.003 -0.01,0.0276 0,0.0304 0,0.0428 0.01,0.0276 0,-0.0152 0,-0.0401 0,-0.0552 z m 0.016,-0.25224 c 0,-0.0154 -0.01,-0.007 -0.01,0.0194 -3e-4,0.026 0,0.0386 0.01,0.0279 0,-0.0107 0,-0.032 6e-4,-0.0473 z m 0.016,-0.26862 c 0,-0.0152 -0.01,-0.003 -0.01,0.0276 0,0.0304 0,0.0428 0.01,0.0276 0,-0.0152 0,-0.0401 0,-0.0552 z m 0.1597,-0.27632 0.1372,-0.005 -0.146,-0.003 -0.146,-0.003 v 0.0513 c 0,0.0469 0,0.0476 0.01,0.008 0.01,-0.0423 0.01,-0.0429 0.1436,-0.048 z m 0.8279,0.0245 c -0.019,-0.004 -0.055,-0.004 -0.079,-2.1e-4 -0.024,0.004 -0.01,0.007 0.035,0.007 0.043,1.3e-4 0.063,-0.003 0.044,-0.007 z m -0.3083,-0.0162 c -0.033,-0.003 -0.082,-0.003 -0.1105,1.3e-4 -0.028,0.003 0,0.006 0.06,0.006 0.061,-6e-5 0.084,-0.003 0.051,-0.006 z"
       id="path19521"
       inkscape:connector-curvature="0"
       transform="matrix(0.26458333,0,0,0.26458333,0,147)" />
    <path
       style="fill:none;stroke:#566060;stroke-width:0.26458332px;stroke-linecap:butt;stroke-linejoin:miter;stroke-opacity:1"
       d="m 274.09669,200.10536 0.0217,4.78688 63.61158,0.0614 0.066,-4.68967 z"
       id="path19529"
       inkscape:connector-curvature="0" />
    <path
       style="opacity:1;fill:#566060;fill-opacity:1;stroke:#566060;stroke-width:0.12626907;stroke-opacity:1"
       d="m 1097.0584,218.33608 -60.4513,-0.0318 -5e-4,-2.49368 c -2e-4,-1.37153 -0.038,-5.21417 -0.084,-8.53921 l -0.083,-6.04552 22.2757,0.082 c 12.2517,0.0451 59.8061,0.16581 105.6765,0.26827 45.8704,0.10246 89.7839,0.22188 97.5857,0.26538 l 14.185,0.0791 -0.077,6.07698 c -0.042,3.34233 -0.1102,7.05714 -0.1512,8.25511 l -0.074,2.17814 -59.175,-0.0314 c -32.5463,-0.0173 -86.3782,-0.0458 -119.6264,-0.0633 z"
       id="path19531"
       inkscape:connector-curvature="0"
       transform="matrix(0.26458333,0,0,0.26458333,0,147)" />
    <path
       style="opacity:1;fill:#566060;fill-opacity:1;stroke:#566060;stroke-width:0.12626907;stroke-opacity:1"
       d="m 1036.5332,212.2436 c 0,-1.28479 0.019,-1.81038 0.042,-1.16799 0.023,0.6424 0.023,1.69359 0,2.33598 -0.023,0.64239 -0.042,0.1168 -0.042,-1.16799 z"
       id="path19533"
       inkscape:connector-curvature="0"
       transform="matrix(0.26458333,0,0,0.26458333,0,147)" />
    <path
       style="opacity:1;fill:#566060;fill-opacity:1;stroke:#566060;stroke-width:0.12626907;stroke-opacity:1"
       d="m 1101.7619,219.31413 c -36.356,-0.0358 -66.1073,-0.0787 -66.1139,-0.0954 -0.01,-0.0167 -0.044,-4.03276 -0.083,-8.92464 -0.039,-4.89187 -0.1068,-8.95323 -0.1513,-9.02524 -0.055,-0.0898 -5.2299,-0.11338 -16.4587,-0.0751 -9.0078,0.0307 -57.45948,0.0862 -107.67037,0.12348 -50.2109,0.0372 -99.006,0.10387 -108.43357,0.1481 l -17.14102,0.0804 v -10.89752 -10.89752 l 16.95162,0.084 c 9.32339,0.0462 66.0237,0.084 126.00068,0.084 l 109.04906,5e-5 -0.057,1.10485 c -0.055,1.07353 -0.2602,19.12515 -0.218,19.19747 0.02,0.0348 32.8309,0.12552 144.8846,0.40078 28.7167,0.0705 61.808,0.16519 73.5361,0.21032 l 21.3239,0.0821 -0.08,5.00178 c -0.044,2.75098 -0.1151,6.9195 -0.1583,9.26337 l -0.079,4.26158 -54.5006,-0.0309 c -29.9754,-0.017 -84.2466,-0.0601 -120.6026,-0.0959 z m 78.6972,-0.84842 c -0.2257,-0.028 -0.595,-0.028 -0.8207,0 -0.2257,0.028 -0.041,0.0509 0.4103,0.0509 0.4514,0 0.6361,-0.0229 0.4104,-0.0509 z m 95.5287,-0.95038 -0.025,-1.04172 -0.043,0.97841 -0.043,0.97841 -44.031,0.0319 -44.031,0.0319 44.0995,0.0314 44.0994,0.0314 z m -239.4129,-2.65165 c -0.023,-0.64239 -0.042,-0.1168 -0.042,1.16799 0,1.28479 0.019,1.81039 0.042,1.16799 0.023,-0.64239 0.023,-1.69358 0,-2.33598 z m 239.5316,-3.15249 c -0.026,-0.36693 -0.047,-0.0989 -0.047,0.59555 0,0.69447 0.021,0.99469 0.047,0.66714 0.026,-0.32755 0.026,-0.89576 0,-1.26269 z m 0.1593,-8.6221 v -1.32582 l -6.6607,0.0304 -6.6607,0.0304 6.5975,0.0339 6.5976,0.0338 v 1.26156 c 0,0.69386 0.028,1.26157 0.063,1.26157 0.035,0 0.063,-0.59662 0.063,-1.32583 z m -31.7251,-1.42049 c -3.1773,-0.0188 -8.3764,-0.0188 -11.5537,0 -3.1772,0.0188 -0.5776,0.0341 5.7769,0.0341 6.3544,0 8.954,-0.0154 5.7768,-0.0341 z m -51.0663,-0.12627 c -3.2762,-0.0187 -8.6742,-0.0187 -11.9956,-1e-5 -3.3214,0.0187 -0.6409,0.0341 5.9567,0.0341 6.5975,10e-6 9.315,-0.0153 6.0389,-0.0341 z m -51.1389,-0.12627 c -3.5539,-0.0186 -9.4065,-0.0186 -13.0057,-10e-6 -3.5993,0.0186 -0.6915,0.0339 6.4616,0.0339 7.1532,0 10.098,-0.0152 6.5441,-0.0339 z m -51.5274,-0.12627 c -3.0731,-0.0188 -8.1018,-0.0188 -11.1748,0 -3.0731,0.0188 -0.5588,0.0342 5.5874,0.0342 6.1461,0 8.6604,-0.0154 5.5874,-0.0342 z"
       id="path19535"
       inkscape:connector-curvature="0"
       transform="matrix(0.26458333,0,0,0.26458333,0,147)" />
    <path
       style="fill:none;stroke:#000000;stroke-width:0.26458332px;stroke-linecap:butt;stroke-linejoin:miter;stroke-opacity:1"
       d="m 66.620167,200.10448 66.446393,-5.3e-4 -0.064,-4.9682 -66.131192,-0.0598 z"
       id="path19541"
       inkscape:connector-curvature="0" />
    <path
       style="opacity:1;fill:#566060;fill-opacity:1;stroke:#566060;stroke-width:0.12626907;stroke-opacity:1"
       d="m 252.37965,199.96393 c 7.2e-4,-0.0868 0.19901,-4.05008 0.44062,-8.80726 0.24162,-4.75719 0.4399,-8.69205 0.44063,-8.74414 0.002,-0.11709 57.89562,-0.12076 166.18865,-0.0106 l 82.66035,0.0841 0.076,4.74566 c 0.0418,2.61011 0.10748,6.57813 0.146,8.81783 l 0.07,4.07218 H 377.39013 c -99.92596,0 -125.01153,-0.0317 -125.01048,-0.15784 z"
       id="path19543"
       inkscape:connector-curvature="0"
       transform="matrix(0.26458333,0,0,0.26458333,0,147)" />
    <path
       style="opacity:1;fill:#566060;fill-opacity:1;stroke:#566060;stroke-width:0.12626907;stroke-opacity:1"
       d="m 251.36299,200.97409 c -0.0262,-0.79719 0.95388,-19.50388 1.02624,-19.58714 0.0544,-0.0626 54.13329,-0.0693 125.41246,-0.0155 l 125.31673,0.0946 0.0793,6.96029 c 0.0436,3.82816 0.11391,8.25297 0.15621,9.83291 l 0.0769,2.87262 H 377.39951 c -100.73812,0 -126.03237,-0.0317 -126.03652,-0.15783 z m 251.10941,-4.04061 c -0.0439,-1.82301 -0.11653,-5.84786 -0.16134,-8.94411 l -0.0815,-5.62954 -91.18022,-0.0841 c -50.14912,-0.0463 -106.19519,-0.0841 -124.54682,-0.0841 l -33.3666,-1e-5 -0.001,0.28411 c -7.3e-4,0.15626 -0.19901,4.17635 -0.44063,8.93353 -0.24161,4.75719 -0.43989,8.69205 -0.44062,8.74414 -7.2e-4,0.0521 56.31623,0.0947 125.14879,0.0947 h 125.15011 z"
       id="path19545"
       inkscape:connector-curvature="0"
       transform="matrix(0.26458333,0,0,0.26458333,0,147)" />
    <path
       style="opacity:1;fill:#566060;fill-opacity:1;stroke:#566060;stroke-width:0.12626907;stroke-opacity:1"
       d="m 253.16751,201.03751 -1.79933,-0.0388 0.001,-0.84885 c 0.002,-1.19988 0.87859,-17.93486 0.96563,-18.43182 l 0.0719,-0.41037 8.60353,-0.0117 c 21.02253,-0.0285 107.89909,0.0191 172.07537,0.0944 l 70.03272,0.0821 0.0773,3.67409 c 0.0425,2.02074 0.11313,6.44411 0.15693,9.8297 l 0.0797,6.15561 -124.23283,-0.0278 c -68.32804,-0.0153 -125.04251,-0.0453 -126.03215,-0.0666 z m 4.95606,-0.93727 4.79823,-0.0361 -5.24017,-0.0659 c -2.88209,-0.0362 -5.28371,-0.0478 -5.33692,-0.0256 -0.25984,0.1082 0.0962,0.25682 0.51066,0.21317 0.25849,-0.0272 2.62918,-0.0657 5.2682,-0.0856 z m 206.47113,0.0531 c -20.89217,-0.0176 -55.04164,-0.0176 -75.88771,0 -20.84605,0.0176 -3.75245,0.032 37.98579,0.032 41.73824,0 58.79411,-0.0144 37.90192,-0.032 z m -196.97219,-0.12372 c -0.26198,-0.0273 -0.65973,-0.0269 -0.88389,0.001 -0.22416,0.0279 -0.01,0.0503 0.47633,0.0497 0.48613,-5.1e-4 0.66953,-0.0234 0.40756,-0.0507 z m 1.70744,7.6e-4 c -0.2257,-0.028 -0.59504,-0.028 -0.82074,0 -0.22571,0.028 -0.041,0.0509 0.41037,0.0509 0.45141,0 0.63608,-0.0229 0.41037,-0.0509 z m 33.21876,-0.003 c -5.9844,-0.0181 -15.81444,-0.0181 -21.84455,0 -6.03011,0.0181 -1.13378,0.033 10.88072,0.033 12.0145,1e-5 16.94822,-0.0148 10.96383,-0.033 z m 199.85916,-2.20279 c -0.11688,-0.40545 -0.12056,-0.39939 -0.13056,0.21409 -0.006,0.34724 0.0318,0.94386 0.0833,1.32583 l 0.0936,0.69448 0.037,-0.90858 c 0.0203,-0.49971 -0.0172,-1.09633 -0.0833,-1.32582 z m -249.94023,1.25728 c -0.0302,-0.15706 -0.0561,-0.0583 -0.0575,0.2195 -0.001,0.27779 0.0233,0.4063 0.0549,0.28558 0.0316,-0.12073 0.0327,-0.34801 0.003,-0.50508 z m 249.88468,-2.20878 c -0.032,-0.12285 -0.0603,-0.0529 -0.0629,0.15544 -0.003,0.20834 0.0236,0.30886 0.0582,0.22337 0.0346,-0.0855 0.0367,-0.25595 0.005,-0.37881 z m -249.75841,-0.3166 c -0.0302,-0.15707 -0.0561,-0.0583 -0.0575,0.2195 -10e-4,0.27779 0.0233,0.4063 0.0549,0.28558 0.0316,-0.12073 0.0327,-0.34801 0.003,-0.50508 z m 0.12627,-2.52538 c -0.0302,-0.15707 -0.0561,-0.0583 -0.0575,0.2195 -0.001,0.27779 0.0233,0.4063 0.0549,0.28558 0.0316,-0.12073 0.0327,-0.34801 0.003,-0.50508 z m 0.124,-2.46372 c -0.0318,-0.12153 -0.0577,-0.0221 -0.0577,0.22097 0,0.24307 0.026,0.34251 0.0577,0.22097 0.0318,-0.12153 0.0318,-0.32041 0,-0.44194 z m 249.38062,-0.30778 c -0.0403,-0.10073 -0.0702,-0.0708 -0.0763,0.0763 -0.005,0.13311 0.0244,0.20768 0.0663,0.16573 0.042,-0.042 0.0464,-0.15087 0.01,-0.24202 z m 0.007,-2.02396 c -0.0255,-0.36693 -0.0468,-0.0989 -0.0471,0.59554 0,0.69448 0.0206,0.9947 0.0465,0.66715 0.0259,-0.32755 0.0262,-0.89576 0,-1.26269 z m -249.25923,-0.25678 c -0.0301,-0.15625 -0.0547,-0.0284 -0.0547,0.28411 0,0.31252 0.0246,0.44036 0.0547,0.28411 0.0301,-0.15626 0.0301,-0.41196 0,-0.56822 z m 249.24966,-2.0203 c -0.035,-0.0868 -0.0637,-0.0158 -0.0637,0.15784 0,0.17362 0.0287,0.24464 0.0637,0.15783 0.035,-0.0868 0.035,-0.22886 0,-0.31567 z m -249.1232,-0.37734 c -0.0302,-0.15706 -0.0561,-0.0583 -0.0575,0.2195 -0.001,0.2778 0.0233,0.40631 0.0549,0.28558 0.0316,-0.12072 0.0328,-0.34801 0.003,-0.50508 z m 249.12582,-1.25627 c -0.0403,-0.10073 -0.0702,-0.0708 -0.0763,0.0763 -0.005,0.13311 0.0244,0.20769 0.0663,0.16573 0.042,-0.042 0.0464,-0.15087 0.01,-0.24202 z M 253.2253,183.92958 c -0.0302,-0.15706 -0.0561,-0.0583 -0.0575,0.2195 -0.001,0.27779 0.0233,0.4063 0.0549,0.28558 0.0316,-0.12072 0.0327,-0.34801 0.003,-0.50508 z m 248.86254,-1.309 c -0.0574,-0.14963 -2.53336,-0.17145 -16.45496,-0.14504 l -16.38737,0.0311 16.38341,0.0325 16.38341,0.0325 0.0212,0.5993 c 0.0202,0.56974 0.0237,0.57529 0.0715,0.11252 0.0277,-0.26774 0.0199,-0.56605 -0.0173,-0.66291 z m -208.54574,-0.292 c 3.62372,-0.0594 -2.29221,-0.0979 -17.38611,-0.11332 -14.09988,-0.0144 -22.90685,0.022 -22.95186,0.0948 -0.0864,0.13981 32.03335,0.15453 40.33797,0.0185 z m 70.61597,0.0212 c -10.22621,-0.0178 -26.96002,-0.0178 -37.18624,0 -10.22621,0.0178 -1.85931,0.0324 18.59312,0.0324 20.45244,0 28.81934,-0.0146 18.59312,-0.0324 z"
       id="path19547"
       inkscape:connector-curvature="0"
       transform="matrix(0.26458333,0,0,0.26458333,0,147)" />
    <path
       style="opacity:1;fill:#566060;fill-opacity:1;stroke:#566060;stroke-width:0.04464286;stroke-opacity:1"
       d="m 389.83267,201.16894 c 20.82756,-0.006 54.90904,-0.006 75.7366,0 20.82757,0.006 3.78683,0.0112 -37.8683,0.0112 -41.65513,0 -58.69587,-0.005 -37.8683,-0.0112 z"
       id="path19549"
       inkscape:connector-curvature="0"
       transform="matrix(0.26458333,0,0,0.26458333,0,147)" />
    <path
       style="opacity:1;fill:#566060;fill-opacity:1;stroke:#566060;stroke-width:0.04464286;stroke-opacity:1"
       d="m 359.23361,201.16894 c 3.99808,-0.006 10.5271,-0.006 14.50893,0 3.98182,0.006 0.71066,0.0114 -7.26925,0.0114 -7.97991,0 -11.23777,-0.005 -7.23968,-0.0114 z"
       id="path19551"
       inkscape:connector-curvature="0"
       transform="matrix(0.26458333,0,0,0.26458333,0,147)" />
    <path
       style="opacity:1;fill:#566060;fill-opacity:1;stroke:#566060;stroke-width:0.04464286;stroke-opacity:1"
       d="m 322.84606,201.16894 c 6.35324,-0.006 16.74944,-0.006 23.10268,0 6.35323,0.006 1.15513,0.0113 -11.55134,0.0113 -12.70647,0 -17.90458,-0.005 -11.55134,-0.0113 z"
       id="path19553"
       inkscape:connector-curvature="0"
       transform="matrix(0.26458333,0,0,0.26458333,0,147)" />
    <path
       style="opacity:1;fill:#566060;fill-opacity:1;stroke:#566060;stroke-width:0.01578363;stroke-opacity:1"
       d="m 404.97082,201.19585 c 8.26142,-0.002 21.78484,-0.002 30.05204,0 8.2672,0.002 1.50786,0.004 -15.02076,0.004 -16.52862,0 -23.2927,-0.002 -15.03128,-0.004 z"
       id="path19555"
       inkscape:connector-curvature="0"
       transform="matrix(0.26458333,0,0,0.26458333,0,147)" />
    <path
       style="opacity:1;fill:#566060;fill-opacity:1;stroke:#566060;stroke-width:0.01578363;stroke-opacity:1"
       d="m 384.39028,201.19585 -17.06606,-0.004 v -8.44424 -8.44424 h 41.36101 41.36102 v 8.44162 8.44162 l -8.6205,0.0105 c -4.74127,0.006 -15.674,0.009 -24.29495,0.007 -8.62096,-0.002 -23.35419,-0.006 -32.74052,-0.008 z"
       id="path19557"
       inkscape:connector-curvature="0"
       transform="matrix(0.26458333,0,0,0.26458333,0,147)" />
    <path
       style="opacity:1;fill:#566060;fill-opacity:1;stroke:#566060;stroke-width:0.01578363;stroke-opacity:1"
       d="m 416.19174,192.75818 v -8.45477 h 41.36101 41.36102 v 8.44425 8.44424 h -20.22278 c -11.12253,0 -29.73499,0.005 -41.36102,0.0105 l -21.13823,0.0105 z"
       id="path19559"
       inkscape:connector-curvature="0"
       transform="matrix(0.26458333,0,0,0.26458333,0,147)" />
    <path
       style="opacity:1;fill:#566060;fill-opacity:1;stroke:#566060;stroke-width:0.01578363;stroke-opacity:1"
       d="m 416.19174,192.75555 v -8.45214 h 41.36101 41.36102 v 8.44162 8.44161 l -28.0199,0.0105 c -15.41094,0.006 -34.0234,0.0105 -41.36101,0.0105 h -13.34112 z"
       id="path19561"
       inkscape:connector-curvature="0"
       transform="matrix(0.26458333,0,0,0.26458333,0,147)" />
    <path
       style="opacity:1;fill:#566060;fill-opacity:1;stroke:#566060;stroke-width:0.01578363;stroke-opacity:1"
       d="m 500.05627,201.19585 c 0.62354,-0.002 1.63922,-0.002 2.25706,0 0.61784,0.002 0.10767,0.004 -1.13371,0.004 -1.24138,-1e-5 -1.74689,-0.002 -1.12335,-0.004 z"
       id="path19563"
       inkscape:connector-curvature="0"
       transform="matrix(0.26458333,0,0,0.26458333,0,147)" />
    <path
       style="opacity:1;fill:#566060;fill-opacity:1;stroke:#566060;stroke-width:0.01578363;stroke-opacity:1"
       d="m 499.13958,201.19588 c 0.11937,-0.003 0.31469,-0.003 0.43405,0 0.11937,0.003 0.0217,0.005 -0.21702,0.005 -0.23873,0 -0.33639,-0.002 -0.21703,-0.005 z"
       id="path19565"
       inkscape:connector-curvature="0"
       transform="matrix(0.26458333,0,0,0.26458333,0,147)" />
    <path
       style="opacity:1;fill:#566060;fill-opacity:1;stroke:#566060;stroke-width:0.01578363;stroke-opacity:1"
       d="m 464.96407,192.75449 v -8.45108 h 19.13766 19.13765 v 0.146 c 0,0.0803 0.0106,0.67515 0.0234,1.32188 0.0535,2.68904 0.11052,6.42743 0.17338,11.36422 0.0213,1.67109 0.0434,3.26741 0.0492,3.54737 l 0.0105,0.50902 h -0.46372 c -0.25505,-1e-5 -8.92474,0.003 -19.26598,0.007 l -18.80221,0.007 z"
       id="path19567"
       inkscape:connector-curvature="0"
       transform="matrix(0.26458333,0,0,0.26458333,0,147)" />
    <path
       style="opacity:1;fill:#566060;fill-opacity:1;stroke:#566060;stroke-width:0.01578363;stroke-opacity:1"
       d="m 278.97358,201.16428 c 0.41518,-0.002 1.08993,-0.002 1.49945,0 0.40952,0.002 0.0698,0.004 -0.75487,0.004 -0.82469,0 -1.15975,-0.002 -0.74458,-0.004 z"
       id="path19569"
       inkscape:connector-curvature="0"
       transform="matrix(0.26458333,0,0,0.26458333,0,147)" />
    <path
       style="opacity:1;fill:#566060;fill-opacity:1;stroke:#566060;stroke-width:0.01578363;stroke-opacity:1"
       d="m 251.274,201.17217 c 0.005,-0.0195 0.011,-0.10299 0.0129,-0.18546 0.003,-0.14168 0.004,-0.14363 0.009,-0.0355 l 0.005,0.11443 0.10585,0.002 c 0.0582,10e-4 0.30472,0.008 0.54779,0.0143 1.62008,0.0448 18.71599,0.0861 44.99914,0.10855 12.75962,0.0109 11.34017,0.0122 -15.83677,0.0146 l -29.85264,0.003 z"
       id="path19571"
       inkscape:connector-curvature="0"
       transform="matrix(0.26458333,0,0,0.26458333,0,147)" />
    <path
       style="opacity:1;fill:#566060;fill-opacity:1;stroke:#566060;stroke-width:0.01578363;stroke-opacity:1"
       d="m 252.7881,200.08857 c -0.3142,-0.007 -0.41849,-0.0145 -0.43405,-0.0305 -0.0171,-0.0176 0.0117,-0.0192 0.17254,-0.01 0.10617,0.006 0.45775,0.0163 0.78129,0.0224 0.32354,0.006 0.48882,0.0124 0.36729,0.0139 -0.12154,0.002 -0.2778,0.005 -0.34724,0.008 -0.0695,0.003 -0.31238,0.001 -0.53983,-0.004 z"
       id="path19573"
       inkscape:connector-curvature="0"
       transform="matrix(0.26458333,0,0,0.26458333,0,147)" />
    <path
       style="opacity:1;fill:#566060;fill-opacity:1;stroke:#566060;stroke-width:0.01578363;stroke-opacity:1"
       d="m 251.27731,201.08536 c 0.005,-0.0673 0.0154,-0.20045 0.0234,-0.29594 0.008,-0.0955 0.0147,-0.33347 0.0147,-0.52885 7e-5,-0.49908 0.0479,-1.61838 0.2059,-4.8218 0.17212,-3.48896 0.48863,-9.45793 0.6252,-11.79038 0.0142,-0.24307 0.028,-0.481 0.0307,-0.52875 0.003,-0.0478 0.01,-0.16849 0.0165,-0.26832 0.006,-0.0998 0.0121,-0.23478 0.0126,-0.29989 5.3e-4,-0.0651 0.008,-0.1236 0.0168,-0.12997 0.009,-0.006 13.22846,-0.0117 29.37729,-0.0118 l 29.3615,-2.4e-4 v 9.38337 9.38337 l -8.93748,0.004 c -8.77766,0.004 -8.83347,0.004 -3.12121,0.0119 3.19895,0.004 -6.21018,0.01 -20.90917,0.0119 l -26.72544,0.004 z m 35.15411,0.0789 c -1.03885,-0.002 -2.74349,-0.002 -3.78807,0 -1.04459,0.002 -0.19462,0.004 1.88882,0.004 2.08344,0 2.9381,-0.002 1.89925,-0.004 z m -34.40112,-0.0945 c -0.0453,-0.003 -0.12339,-0.003 -0.17362,0 -0.0502,0.003 -0.0132,0.006 0.0823,0.006 0.0955,0 0.13659,-0.003 0.0913,-0.006 z m -0.65462,-0.0156 c -0.0448,-0.005 -0.0597,-0.0141 -0.0649,-0.0408 -0.006,-0.0286 -0.007,-0.0271 -0.009,0.009 -0.002,0.0413 0.001,0.0433 0.0649,0.0408 l 0.0671,-0.003 z m 1.33668,-0.96787 c -0.1823,-0.006 -0.33678,-0.0116 -0.34329,-0.0129 -0.0278,-0.005 -0.009,-0.0338 0.0224,-0.0338 0.0188,0 0.0298,-0.004 0.0244,-0.01 -0.0136,-0.0136 -0.0902,0.007 -0.0902,0.0246 0,0.0341 0.10602,0.0458 0.40248,0.0442 l 0.31567,-0.002 z m 1.90062,-0.009 c 0.0116,-0.0106 -0.85126,-0.003 -1.07198,0.01 -0.12433,0.007 0.0531,0.009 0.42616,0.004 0.35158,-0.004 0.6422,-0.0106 0.64582,-0.014 z m -1.08309,-0.0177 c -0.0625,-0.003 -0.16908,-0.003 -0.23676,0 -0.0677,0.003 -0.0165,0.005 0.11371,0.005 0.13022,0 0.18559,-0.002 0.12305,-0.005 z m -0.75834,-0.0155 c -0.0282,-0.004 -0.0744,-0.004 -0.10259,0 -0.0282,0.004 -0.005,0.006 0.0513,0.006 0.0564,0 0.0795,-0.003 0.0513,-0.006 z"
       id="path19575"
       inkscape:connector-curvature="0"
       transform="matrix(0.26458333,0,0,0.26458333,0,147)" />
    <path
       style="opacity:1;fill:#566060;fill-opacity:1;stroke:#566060;stroke-width:0.01578363;stroke-opacity:1"
       d="m 252.2567,181.57284 c 0.004,-0.13455 0.0112,-0.27128 0.0159,-0.30383 l 0.009,-0.0592 3.85376,0.003 3.85377,0.003 -3.81964,0.0145 c -2.1008,0.008 -3.82063,0.0156 -3.82185,0.0169 -0.001,0.001 -0.0206,0.11249 -0.043,0.24705 -0.0224,0.13455 -0.044,0.2624 -0.0478,0.2841 -0.004,0.0217 -0.004,-0.0706 3.7e-4,-0.20519 z"
       id="path19577"
       inkscape:connector-curvature="0"
       transform="matrix(0.26458333,0,0,0.26458333,0,147)" />
    <path
       style="opacity:1;fill:#566060;fill-opacity:1;stroke:#566060;stroke-width:0.01578363;stroke-opacity:1"
       d="m 251.273,201.10904 c 0.007,-0.0962 0.025,-0.57544 0.0585,-1.5981 0.0527,-1.60859 0.40348,-8.52259 0.74912,-14.76559 0.056,-1.01133 0.10616,-1.94178 0.11149,-2.06765 0.005,-0.12588 0.0157,-0.24307 0.023,-0.26043 0.007,-0.0174 0.0216,-0.16297 0.0316,-0.32357 0.0101,-0.16059 0.0214,-0.30975 0.0252,-0.33145 0.006,-0.0357 0.005,-0.0365 -0.009,-0.008 -0.0174,0.0337 -0.008,-0.44033 0.0101,-0.50903 l 0.009,-0.0355 3.81385,0.004 c 3.36548,0.003 3.58005,0.005 1.82511,0.0131 -1.0938,0.005 2.94573,0.006 8.97675,0.003 6.03102,-0.004 18.41269,-10e-4 27.51482,0.005 l 16.54933,0.0117 v 9.96503 9.96503 l -3.45267,0.003 c -1.89896,0.002 -3.30351,0.007 -3.12121,0.0123 0.1823,0.005 -11.69571,0.0104 -26.39558,0.0123 l -26.72704,0.003 z m 52.31396,0.0711 c -0.12804,-0.003 -0.33757,-0.003 -0.46562,0 -0.12804,0.003 -0.0233,0.005 0.23281,0.005 0.25609,0 0.36086,-0.002 0.23281,-0.005 z m -46.01607,-18.87725 c -0.22727,-0.002 -0.60371,-0.002 -0.83653,0 -0.23283,0.002 -0.0469,0.004 0.41321,0.004 0.46009,0 0.65058,-0.002 0.42332,-0.004 z m 0.59106,5.5e-4 c -0.0237,-0.004 -0.0663,-0.004 -0.0947,-1.6e-4 -0.0284,0.004 -0.009,0.006 0.0431,0.007 0.0521,9e-5 0.0753,-0.003 0.0516,-0.006 z m 3.9693,-0.0164 c -0.64457,-0.002 -1.69931,-0.002 -2.34387,0 -0.64457,0.002 -0.1172,0.004 1.17193,0.004 1.28913,0 1.8165,-0.002 1.17194,-0.004 z m 7.54457,-0.0158 c -1.1307,-0.002 -2.98093,-0.002 -4.11163,0 -1.1307,0.002 -0.20558,0.004 2.05582,0.004 2.2614,0 3.18651,-0.002 2.05581,-0.004 z M 252.35223,181.27 c -0.005,-0.0126 -0.009,-0.009 -0.01,0.01 -6.8e-4,0.0166 0.003,0.026 0.008,0.0207 0.005,-0.005 0.006,-0.0189 10e-4,-0.0302 z m 2.20317,-0.039 c -0.0107,-0.004 -0.032,-0.005 -0.0473,-5.8e-4 -0.0153,0.004 -0.007,0.008 0.0194,0.008 0.026,3.2e-4 0.0386,-0.003 0.0279,-0.007 z m 0.26032,-4.9e-4 c -0.0151,-0.004 -0.0435,-0.004 -0.0631,-3.2e-4 -0.0196,0.004 -0.007,0.007 0.0274,0.007 0.0347,1.7e-4 0.0508,-0.003 0.0357,-0.007 z m 0.22078,-4.6e-4 c -0.0239,-0.004 -0.0629,-0.004 -0.0868,0 -0.0239,0.004 -0.004,0.007 0.0434,0.007 0.0477,0 0.0673,-0.003 0.0434,-0.007 z m 0.23676,4.3e-4 c -0.0152,-0.004 -0.04,-0.004 -0.0552,0 -0.0152,0.004 -0.003,0.007 0.0276,0.007 0.0304,0 0.0428,-0.003 0.0276,-0.007 z m 0.55271,-4e-4 c -0.0237,-0.004 -0.0663,-0.004 -0.0947,-1.6e-4 -0.0284,0.004 -0.009,0.006 0.0431,0.007 0.0521,9e-5 0.0753,-0.003 0.0516,-0.006 z"
       id="path19579"
       inkscape:connector-curvature="0"
       transform="matrix(0.26458333,0,0,0.26458333,0,147)" />
    <path
       style="opacity:1;fill:#566060;fill-opacity:1;stroke:#566060;stroke-width:0.01578363;stroke-opacity:1"
       d="m 251.26629,201.20768 c -0.001,-0.004 -0.002,-0.0114 -0.001,-0.0158 0.005,-0.0849 0.0414,-1.05827 0.0595,-1.57047 0.0229,-0.64766 0.0908,-2.19129 0.14104,-3.20408 0.17512,-3.53214 0.3458,-6.82301 0.49771,-9.59645 0.0347,-0.63371 0.10171,-1.86602 0.14888,-2.73846 0.0472,-0.87244 0.0931,-1.63952 0.102,-1.70463 0.0271,-0.19755 0.0352,-0.35413 0.0391,-0.75075 0.002,-0.2087 0.009,-0.38729 0.0145,-0.39685 0.0112,-0.0181 25.60794,-0.0152 48.05217,0.005 l 10.64211,0.01 v 9.97133 9.97133 l -6.23848,0.0107 c -7.3842,0.0127 -53.45438,0.0204 -53.45709,0.009 z"
       id="path19581"
       inkscape:connector-curvature="0"
       transform="matrix(0.26458333,0,0,0.26458333,0,147)" />
    <path
       style="fill:none;stroke:#000000;stroke-width:0.25771135px;stroke-linecap:butt;stroke-linejoin:miter;stroke-opacity:1"
       d="m 66.616282,200.07731 0.02569,-5.00723 0.363318,0.004 -0.07517,5.02379 z"
       id="path19585"
       inkscape:connector-curvature="0" />
    <path
       style="opacity:1;fill:#566060;fill-opacity:1;stroke:#566060;stroke-width:0.01578363;stroke-opacity:1"
       d="m 252.26648,201.12311 -0.96675,-0.0645 -3.6e-4,-0.26878 c -6.5e-4,-0.48519 0.0984,-19.58785 0.10155,-19.59142 0.007,-0.008 2.31734,0.0255 2.32571,0.0339 0.0104,0.0104 -0.27818,19.78835 -0.29026,19.89248 l -0.008,0.0671 -0.0977,-0.002 c -0.0537,-0.001 -0.53271,-0.0312 -1.06442,-0.0666 z m 0.35378,-9.54344 c 0.0709,-4.71813 0.13016,-8.76308 0.13174,-8.98878 l 0.003,-0.41038 -0.19693,-0.004 -0.19694,-0.004 -0.01,0.80937 c -0.0173,1.44278 -0.0909,17.15293 -0.0804,17.16986 0.006,0.01 0.0544,0.0145 0.11532,0.0118 l 0.10518,-0.005 z"
       id="path19587"
       inkscape:connector-curvature="0"
       transform="matrix(0.26458333,0,0,0.26458333,0,147)" />
    <path
       style="opacity:1;fill:#566060;fill-opacity:1;stroke:#566060;stroke-width:0.01578363;stroke-opacity:1"
       d="m 251.26608,201.21401 c -0.004,-0.008 -0.003,-0.103 0.001,-0.21151 l 0.008,-0.1973 0.008,0.13416 c 0.005,0.0738 0.0133,-1.01291 0.0196,-2.41489 0.0267,-5.95788 0.0759,-15.4094 0.0851,-16.33178 l 0.01,-0.99798 0.85437,0.007 c 0.46991,0.004 0.99288,0.0119 1.16216,0.0175 l 0.30778,0.0103 -0.002,0.87785 c -0.002,0.87129 -0.002,0.87337 0.01,0.27808 0.006,-0.32988 0.0122,-0.73058 0.0134,-0.89045 l 0.002,-0.29068 15.72445,0.0106 c 8.64844,0.006 20.23817,0.0117 25.75494,0.0131 5.51678,10e-4 11.3143,0.005 12.88339,0.009 l 2.85289,0.007 v 9.97159 9.9716 l -4.81006,0.0102 c -8.32894,0.0178 -54.87835,0.0318 -54.88572,0.0166 z m 2.17807,-0.0497 c -0.002,-0.036 -0.003,-0.0375 -0.009,-0.009 -0.006,0.0287 -0.0194,0.0357 -0.0807,0.0406 l -0.074,0.006 0.0829,0.003 c 0.081,0.003 0.0828,0.002 0.0807,-0.0406 z m -0.30168,0.0167 c -0.0152,-0.004 -0.0401,-0.004 -0.0552,0 -0.0152,0.004 -0.003,0.007 0.0276,0.007 0.0304,0 0.0428,-0.003 0.0276,-0.007 z m -0.26043,-0.0154 c -0.0108,-0.004 -0.0286,-0.004 -0.0395,0 -0.0109,0.004 -0.002,0.008 0.0197,0.008 0.0217,0 0.0306,-0.004 0.0197,-0.008 z m -0.23676,-0.0158 c -0.0109,-0.004 -0.0286,-0.004 -0.0395,0 -0.0109,0.004 -0.002,0.008 0.0197,0.008 0.0217,0 0.0306,-0.004 0.0197,-0.008 z m -0.25253,-0.0158 c -0.0109,-0.004 -0.0286,-0.004 -0.0395,0 -0.0108,0.004 -0.002,0.008 0.0197,0.008 0.0217,0 0.0306,-0.004 0.0197,-0.008 z m -0.24498,-0.0149 c -0.005,-0.005 -0.0189,-0.006 -0.0302,-0.001 -0.0126,0.005 -0.009,0.009 0.01,0.01 0.0166,6.8e-4 0.026,-0.003 0.0207,-0.008 z m -0.21245,-0.0166 c -0.0107,-0.004 -0.032,-0.005 -0.0473,-5.8e-4 -0.0154,0.004 -0.007,0.008 0.0194,0.008 0.026,3.1e-4 0.0386,-0.003 0.0279,-0.007 z m -0.23675,-0.0158 c -0.0107,-0.004 -0.032,-0.005 -0.0473,-5.9e-4 -0.0154,0.004 -0.007,0.008 0.0194,0.008 0.026,3.2e-4 0.0386,-0.003 0.0279,-0.007 z m -0.24477,-0.0163 c -0.0151,-0.004 -0.0435,-0.004 -0.0631,-3.2e-4 -0.0196,0.004 -0.007,0.007 0.0274,0.007 0.0347,1.7e-4 0.0508,-0.003 0.0357,-0.007 z m 2.00426,-0.58499 c -0.003,-0.076 -0.005,-0.0138 -0.005,0.13811 0,0.15192 0.002,0.21407 0.005,0.13811 0.003,-0.076 0.003,-0.20026 0,-0.27622 z m -1.08899,-0.3305 c -0.0152,-0.004 -0.04,-0.004 -0.0552,0 -0.0152,0.004 -0.003,0.007 0.0276,0.007 0.0304,0 0.0428,-0.003 0.0276,-0.007 z m 0.1262,-0.65518 c -0.003,-0.0807 -0.005,-0.0189 -0.005,0.13731 -1e-5,0.15626 0.002,0.22232 0.005,0.1468 0.003,-0.0755 0.003,-0.20337 3e-5,-0.28411 z m 0.97854,-0.008 c -0.003,-0.059 -0.006,-0.0149 -0.006,0.098 -3e-5,0.11285 0.002,0.16109 0.006,0.1072 0.003,-0.0539 0.003,-0.14623 4e-5,-0.20519 z m -0.96275,-1.04947 c -0.003,-0.0807 -0.005,-0.0189 -0.005,0.13731 -2e-5,0.15626 0.002,0.22232 0.005,0.1468 0.003,-0.0755 0.003,-0.20337 3e-5,-0.28411 z m 0.97837,0.0623 c -0.003,-0.0369 -0.006,-0.007 -0.006,0.0671 0,0.0738 0.003,0.10397 0.006,0.0671 0.003,-0.0369 0.003,-0.0973 0,-0.13416 z m -0.9626,-1.12064 c -0.003,-0.0803 -0.005,-0.0146 -0.005,0.146 0,0.1606 0.002,0.2263 0.005,0.146 0.003,-0.0803 0.003,-0.2117 0,-0.292 z m 0.97832,0.0868 c -0.003,-0.0326 -0.006,-0.006 -0.006,0.0592 0,0.0651 0.003,0.0917 0.006,0.0592 0.003,-0.0326 0.003,-0.0858 0,-0.11838 z m -1.21502,-0.88388 c -0.003,-0.15409 -0.005,-0.028 -0.005,0.28015 0,0.30818 0.002,0.43425 0.005,0.28016 0.003,-0.15408 0.003,-0.40623 0,-0.56031 z m 0.25249,-0.26833 c -0.003,-0.0846 -0.005,-0.0154 -0.005,0.15389 0,0.16928 0.002,0.23853 0.005,0.15389 0.003,-0.0846 0.003,-0.22314 0,-0.30778 z m 0.97834,0.0951 c -0.003,-0.0327 -0.006,-0.01 -0.006,0.0509 -7e-5,0.0608 0.003,0.0876 0.006,0.0595 0.003,-0.028 0.004,-0.0777 1.3e-4,-0.11048 z m -0.96256,-1.13678 c -0.003,-0.0846 -0.005,-0.0154 -0.005,0.15389 0,0.16928 0.002,0.23853 0.005,0.15389 0.003,-0.0846 0.003,-0.22314 0,-0.30778 z m 0.97838,0.071 c -0.003,-0.0369 -0.006,-0.007 -0.006,0.0671 0,0.0738 0.003,0.10398 0.006,0.0671 0.003,-0.0369 0.003,-0.0973 0,-0.13416 z m -0.96258,-1.12771 c -0.003,-0.0851 -0.005,-0.0198 -0.005,0.14518 -2e-5,0.16494 0.002,0.23456 0.005,0.15471 0.003,-0.0799 0.003,-0.2148 3e-5,-0.29989 z m -0.26827,-1.2714 c -0.002,-0.28865 -0.004,-0.0525 -0.004,0.5248 0,0.57729 0.002,0.81345 0.004,0.52481 0.002,-0.28864 0.002,-0.76097 0,-1.04961 z m 1.24663,1.32582 c -0.003,-0.0369 -0.006,-0.007 -0.006,0.0671 0,0.0738 0.003,0.10398 0.006,0.0671 0.003,-0.0369 0.003,-0.0973 0,-0.13416 z m -0.9626,-1.11358 c -0.003,-0.0842 -0.005,-0.011 -0.005,0.16262 1e-5,0.17362 0.002,0.24249 0.005,0.15305 0.003,-0.0894 0.003,-0.23149 -3e-5,-0.31567 z m 0.97843,0.0482 c -0.003,-0.0412 -0.006,-0.007 -0.006,0.075 0,0.0825 0.003,0.11621 0.006,0.075 0.003,-0.0412 0.003,-0.10871 0,-0.14994 z m -0.96264,-1.08907 c -0.003,-0.0846 -0.005,-0.0154 -0.005,0.15389 0,0.16928 0.002,0.23853 0.005,0.15389 0.003,-0.0846 0.003,-0.22314 0,-0.30778 z m 0.97846,0.0237 c -0.003,-0.0456 -0.006,-0.008 -0.006,0.0829 0,0.0911 0.003,0.12844 0.006,0.0829 0.003,-0.0456 0.003,-0.12015 0,-0.16573 z m -0.96268,-1.08202 c -0.003,-0.0842 -0.005,-0.011 -0.005,0.16263 2e-5,0.17362 0.002,0.24249 0.005,0.15305 0.003,-0.0894 0.003,-0.2315 -2e-5,-0.31568 z m -0.29982,-1.25396 c -0.002,-0.31468 -0.004,-0.0572 -0.004,0.57216 0,0.62937 0.002,0.88684 0.004,0.57216 0.002,-0.31469 0.002,-0.82963 0,-1.14432 z m 1.2783,1.29479 c -0.003,-0.0459 -0.006,-0.0124 -0.006,0.0744 -5e-5,0.0868 0.003,0.12434 0.006,0.0834 0.003,-0.041 0.003,-0.11197 7e-5,-0.15784 z m -0.96269,-1.11327 c -0.003,-0.0846 -0.005,-0.0154 -0.005,0.15389 0,0.16928 0.002,0.23853 0.005,0.15389 0.003,-0.0846 0.003,-0.22314 0,-0.30778 z m 0.97852,-0.0158 c -0.003,-0.0586 -0.006,-0.0106 -0.006,0.10654 0,0.1172 0.002,0.16514 0.006,0.10654 0.003,-0.0586 0.003,-0.15448 0,-0.21308 z m -0.96274,-1.02593 c -0.003,-0.0846 -0.005,-0.0154 -0.005,0.15389 0,0.16928 0.002,0.23853 0.005,0.15389 0.003,-0.0846 0.003,-0.22314 0,-0.30778 z m 0.97858,-0.0703 c -0.003,-0.072 -0.005,-0.0173 -0.005,0.12157 -1e-5,0.1389 0.002,0.19783 0.005,0.13097 0.003,-0.0669 0.003,-0.18051 3e-5,-0.25254 z m -1.29418,-2.21163 c -0.002,-0.32272 -0.004,-0.0541 -0.004,0.597 0,0.65108 0.002,0.91513 0.004,0.58678 0.002,-0.32835 0.002,-0.86105 0,-1.18378 z m 0.3314,1.24101 c -0.003,-0.0851 -0.005,-0.0198 -0.005,0.14518 -1e-5,0.16493 0.002,0.23455 0.005,0.15471 0.003,-0.0798 0.003,-0.2148 3e-5,-0.29989 z m 0.97857,-0.14288 c -0.003,-0.0846 -0.005,-0.0154 -0.005,0.15389 0,0.16928 0.002,0.23853 0.005,0.15389 0.003,-0.0846 0.003,-0.22314 0,-0.30778 z m -0.96279,-0.93041 c -0.003,-0.0851 -0.005,-0.0198 -0.005,0.14518 -1e-5,0.16494 0.002,0.23456 0.005,0.15471 0.003,-0.0799 0.003,-0.2148 3e-5,-0.29989 z m 0.97859,-0.17444 c -0.003,-0.0933 -0.005,-0.017 -0.005,0.16967 0,0.18665 0.002,0.263 0.005,0.16968 0.003,-0.0933 0.003,-0.24603 0,-0.33935 z m -0.96281,-0.87519 c -0.003,-0.0807 -0.005,-0.0189 -0.005,0.1373 -2e-5,0.15626 0.002,0.22232 0.005,0.1468 0.003,-0.0755 0.003,-0.20337 3e-5,-0.2841 z m 0.97861,-0.21299 c -0.003,-0.10249 -0.005,-0.023 -0.005,0.17667 -1e-5,0.19967 0.002,0.28352 0.005,0.18635 0.003,-0.0972 0.003,-0.26053 1e-5,-0.36302 z m -1.32579,-1.49133 c -0.002,-0.23717 -0.004,-0.0477 -0.004,0.4211 -1e-5,0.46877 0.002,0.66282 0.004,0.43122 0.002,-0.23161 0.002,-0.61515 10e-6,-0.85232 z m 0.36292,0.64524 c -0.003,-0.0712 -0.005,-0.009 -0.005,0.13888 2e-5,0.14758 0.002,0.20583 0.005,0.12944 0.003,-0.0764 0.003,-0.19713 -4e-5,-0.26832 z m 0.97865,-0.25966 c -0.003,-0.11068 -0.005,-0.0201 -0.005,0.20125 0,0.22136 0.002,0.31192 0.005,0.20124 0.003,-0.11069 0.003,-0.2918 0,-0.40249 z m 0.0158,-1.16009 c -0.003,-0.13239 -0.005,-0.0241 -0.005,0.2407 0,0.26477 0.002,0.37308 0.005,0.2407 0.003,-0.13239 0.003,-0.34902 0,-0.4814 z m -0.97867,0.34724 c -0.003,-0.0629 -0.005,-0.0114 -0.005,0.11443 0,0.12587 0.002,0.17737 0.005,0.11443 0.003,-0.0629 0.003,-0.16593 0,-0.22886 z m 0.0157,-1.04119 c -0.003,-0.0459 -0.006,-0.0124 -0.006,0.0744 -4e-5,0.0868 0.003,0.12434 0.006,0.0834 0.003,-0.0409 0.003,-0.11197 7e-5,-0.15783 z"
       id="path19589"
       inkscape:connector-curvature="0"
       transform="matrix(0.26458333,0,0,0.26458333,0,147)" />
    <path
       style="opacity:1;fill:#566060;fill-opacity:1;stroke:#566060;stroke-width:0.01578363;stroke-opacity:1"
       d="m 251.26124,201.03266 c 0.005,-0.10774 0.012,-0.2101 0.0159,-0.22746 0.007,-0.0295 0.0243,-2.77726 0.046,-7.11842 0.005,-1.02436 0.016,-3.18001 0.0241,-4.79033 0.008,-1.61033 0.0186,-3.73756 0.0233,-4.7272 0.005,-0.98963 0.0129,-2.06483 0.0181,-2.38933 l 0.01,-0.59 1.04378,0.0102 c 0.57408,0.006 1.09859,0.0144 1.16557,0.0195 l 0.12179,0.009 0.005,0.16008 0.005,0.16009 0.003,-0.17943 0.003,-0.17944 1.92955,0.01 c 1.06125,0.005 13.18723,0.0133 26.94661,0.0177 13.75938,0.004 25.76461,0.0124 26.67829,0.0178 l 1.66122,0.01 v 9.97069 9.97069 l -2.261,0.0104 c -1.24355,0.006 -14.67819,0.0151 -29.85475,0.0209 l -27.59374,0.0104 z"
       id="path19591"
       inkscape:connector-curvature="0"
       transform="matrix(0.26458333,0,0,0.26458333,0,147)" />
    <path
       style="fill:none;stroke:#000000;stroke-width:0.26458332px;stroke-linecap:butt;stroke-linejoin:miter;stroke-opacity:1"
       d="m 2.9817681,200.16442 v 4.78889 H 66.555167 l -0.07197,-4.8236 z"
       id="path19593"
       inkscape:connector-curvature="0" />
    <path
       style="opacity:1;fill:#566060;fill-opacity:1;stroke:#566060;stroke-width:0.17857143;stroke-opacity:1"
       d="m 10.875517,209.97213 v -9.44289 l 120.401783,-0.0791 c 66.22099,-0.0435 120.41125,-0.0732 120.42284,-0.066 0.0116,0.007 0.0774,4.29212 0.14618,9.52204 l 0.12516,9.50892 H 131.4235 10.875517 Z m 240.103443,-0.0642 c -0.0713,-4.73784 -0.15696,-8.64164 -0.19044,-8.67512 -0.0335,-0.0335 -53.82672,-0.002 -119.54051,0.0702 l -119.479636,0.13103 v 8.54409 8.5441 H 131.43845 251.10852 Z"
       id="path19595"
       inkscape:connector-curvature="0"
       transform="matrix(0.26458333,0,0,0.26458333,0,147)" />
    <path
       style="opacity:1;fill:#566060;fill-opacity:1;stroke:#566060;stroke-width:0.17857143;stroke-opacity:1"
       d="m 11.946946,209.98044 v -8.36316 l 86.279721,-0.11898 c 47.453843,-0.0654 101.159653,-0.11899 119.346263,-0.11899 h 33.06652 l 0.11803,5.11834 c 0.0649,2.81508 0.11804,6.63205 0.11804,8.48214 v 3.36381 H 131.41123 11.946946 Z"
       id="path19597"
       inkscape:connector-curvature="0"
       transform="matrix(0.26458333,0,0,0.26458333,0,147)" />
    <path
       style="opacity:1;fill:#566060;fill-opacity:1;stroke:#566060;stroke-width:0.17857143;stroke-opacity:1"
       d="m 10.815993,219.47455 c -0.06548,-0.0655 -0.119047,-4.358 -0.119047,-9.53893 v -9.41988 l 46.116071,-0.0748 c 25.36384,-0.0411 79.457783,-0.0881 120.208753,-0.10435 40.75098,-0.0163 74.11077,-0.25469 74.13287,-0.27899 0.0221,-0.0243 0.0982,-4.09795 0.16902,-9.30331 0.0709,-5.20536 0.15459,-9.49264 0.18607,-9.52728 0.0315,-0.0346 56.66495,-0.003 125.85213,0.07 l 125.79485,0.133 0.10843,6.00143 c 0.0596,3.30079 0.13927,7.7492 0.177,9.88536 l 0.0686,3.88393 H 377.65141 l -125.62111,-0.13097 -0.32041,-0.3601 c -0.0137,-0.31312 0.36059,0.20891 0.29011,1.57828 0.12711,2.96682 0.0682,17.01319 -0.009,17.17172 -0.0804,0.16541 -241.009571,0.18028 -241.174968,0.0149 z m 240.198467,-3.76488 -0.0396,-2.8125 -0.0543,2.72321 -0.0543,2.72322 H 131.40833 11.950443 l -0.04818,-8.4375 -0.04818,-8.4375 -0.04285,8.52678 -0.04285,8.52679 H 131.41123 251.05409 Z m -0.18626,-12.32143 c -0.0368,-0.46652 -0.0669,-0.0848 -0.0669,0.84821 0,0.93304 0.0301,1.31473 0.0669,0.84822 0.0368,-0.46652 0.0368,-1.22991 0,-1.69643 z M 71.902303,201.42396 c -9.895089,-0.0255 -26.087054,-0.0255 -35.982143,0 -9.895089,0.0255 -1.799107,0.0464 17.991072,0.0464 19.790178,0 27.88616,-0.0209 17.991071,-0.0464 z m 176.528537,-0.17804 c -1.29547,-0.0305 -3.46511,-0.0306 -4.82143,-1.7e-4 -1.35632,0.0304 -0.29639,0.0553 2.35539,0.0554 2.65179,9e-5 3.7615,-0.0248 2.46604,-0.0552 z"
       id="path19599"
       inkscape:connector-curvature="0"
       transform="matrix(0.26458333,0,0,0.26458333,0,147)"
       sodipodi:nodetypes="cscccscccccscccccccccccccccccccccsscssssscccsc" />
  </g>
  <g
     inkscape:groupmode="layer"
     id="layer3"
     inkscape:label="Ebene 2" />
</svg>
